<?xml version="1.0" standalone="no"?>
<!DOCTYPE svg PUBLIC "-//W3C//DTD SVG 1.1//EN" "http://www.w3.org/Graphics/SVG/1.1/DTD/svg11.dtd" >
<svg xmlns="http://www.w3.org/2000/svg">
<metadata></metadata>
<defs>
<font id="BertholdAkzidenzGroteskBECoMd" horiz-adv-x="641" >
<font-face units-per-em="2048" ascent="1638" descent="-410" />
<missing-glyph horiz-adv-x="425" />
<glyph horiz-adv-x="0" />
<glyph horiz-adv-x="2048" />
<glyph unicode=" "  horiz-adv-x="425" />
<glyph unicode="&#x09;" horiz-adv-x="425" />
<glyph unicode="&#xa0;" horiz-adv-x="425" />
<glyph unicode="!" horiz-adv-x="382" d="M145 0v264h164v-264h-164zM145 924v508h162v-558l-35 -421h-90z" />
<glyph unicode="&#x22;" horiz-adv-x="811" d="M106 1423q0 58 36 84.5t77 26.5q47 0 77.5 -32.5t22.5 -88.5l-83 -524h-48l-77 500q-5 30 -5 34zM489 1423q0 58 36 84.5t77 26.5q47 0 77.5 -32.5t22.5 -88.5l-84 -524h-47l-77 500q-5 30 -5 34z" />
<glyph unicode="#" horiz-adv-x="1193" d="M0 471v158h305l33 219h-289v158h309l64 440h164l-62 -440h226l63 440h160l-60 -440h283v-158h-305l-33 -219h287v-158h-307l-68 -471h-164l68 471h-228l-65 -471h-166l68 471h-283zM469 629h227l31 219h-227z" />
<glyph unicode="$" horiz-adv-x="681" d="M61 516h170q2 -218 13 -274q14 -105 102 -105q115 0 115 170q0 80 -24.5 140t-74.5 128l-94 121q-117 152 -158.5 260t-41.5 205q0 113 56 195t163 104v121h94v-117q58 -11 99 -34t66 -53t39 -76t18.5 -92.5t4.5 -112.5q0 -16 -1 -45t-1 -45h-160q0 180 -10 219 q-19 88 -92 88q-52 0 -78 -42t-26 -110q0 -44 9 -81.5t33.5 -81.5t40 -67.5t56.5 -80.5l88 -117q100 -136 134 -230.5t34 -193.5q0 -134 -61.5 -219.5t-190.5 -99.5v-144h-94v144q-37 9 -66.5 22t-52 27.5t-39.5 39t-29 45.5t-19.5 57.5t-12 65t-6.5 79t-2.5 88t-0.5 102.5z " />
<glyph unicode="%" horiz-adv-x="1193" d="M45 741v521q0 24 1 41t11 49t27.5 52.5t55 37t89.5 16.5q193 0 193 -209v-479q0 -29 -0.5 -46t-4 -46t-10.5 -46.5t-21 -39.5t-34 -34.5t-51 -21t-70 -8.5q-53 0 -90.5 16t-55.5 36.5t-28 55t-11 54t-1 51.5zM162 725q0 -18 0.5 -26.5t4 -24t10.5 -23t21 -14t35 -6.5 q25 0 41 7.5t22 21.5t7.5 23t1.5 24v557q0 22 -2 36t-8.5 30t-22 24t-39.5 8q-26 0 -41.5 -7t-21.5 -23t-7 -27t-1 -33v-547zM233 -10l633 1507l101 -41l-633 -1507zM776 203v518q0 199 187 199q50 0 87 -14.5t56.5 -35t31 -51.5t14.5 -55.5t3 -54.5v-478q0 -30 -0.5 -46.5 t-4 -46t-10.5 -46.5t-20.5 -39t-33.5 -34t-51 -20.5t-70 -8.5q-54 0 -92 16t-56 36.5t-28 54.5t-11.5 54t-1.5 52zM893 186q0 -17 0.5 -26t4.5 -24t11 -23t22 -14.5t36 -6.5q25 0 41 7t22 21.5t7 23.5t1 24v557q0 22 -1.5 36t-8 30t-22 24t-39.5 8q-26 0 -42.5 -7 t-22.5 -22.5t-7.5 -27t-1.5 -33.5v-547z" />
<glyph unicode="&#x26;" horiz-adv-x="894" d="M59 375q0 66 12.5 122t40.5 108t46 78t57 77q-86 156 -86 330q0 151 77.5 243t201.5 92q114 0 174.5 -72.5t60.5 -174.5q0 -62 -20 -124.5t-57.5 -122t-67.5 -98.5t-74 -90q44 -96 75 -153t105 -180q23 73 31.5 133t11.5 182h164q-1 -66 -3 -104.5t-10 -110t-27.5 -135 t-49.5 -119.5q52 -44 90 -61.5t84 -22.5v-184q-47 7 -79.5 14.5t-85 32.5t-95.5 65q-48 -56 -105.5 -86t-142.5 -30q-140 0 -234 103.5t-94 287.5zM229 385q0 -94 45 -162.5t115 -68.5q66 0 119 71q-76 120 -110.5 181t-96.5 186q-23 -33 -35.5 -55t-24.5 -63.5t-12 -88.5z M297 1124q0 -42 8.5 -88t14.5 -63.5t22 -65.5q68 86 101.5 147.5t33.5 127.5q0 51 -21.5 75.5t-54.5 24.5q-54 0 -79 -46t-25 -112z" />
<glyph unicode="'" horiz-adv-x="425" d="M106 1423q0 58 36 84.5t77 26.5q47 0 77.5 -32.5t22.5 -88.5l-83 -524h-48l-77 500q-5 30 -5 34z" />
<glyph unicode="(" horiz-adv-x="512" d="M63 547q0 264 82 491q30 83 69.5 155.5t73 117.5t76 86t64.5 57.5t51 36.5v-121q-139 -128 -192 -405q-41 -207 -41 -422q0 -86 3 -157t16.5 -175.5t37 -189.5t68.5 -175t106 -155v-121q-41 31 -69.5 56.5t-73.5 74t-85.5 116.5t-74.5 152q-56 134 -83.5 287t-27.5 291z " />
<glyph unicode=")" horiz-adv-x="512" d="M33 -311q138 127 192 405q41 207 41 424q0 86 -3 157t-16.5 175t-37 188.5t-68.5 174.5t-106 155v123q34 -27 54 -44t58.5 -55.5t67 -76t63 -97t62.5 -126.5q54 -133 81.5 -286.5t27.5 -293.5q0 -265 -82 -492q-30 -83 -69.5 -154.5t-73 -116t-76 -85.5t-64.5 -57.5 t-51 -36.5v119z" />
<glyph unicode="*" horiz-adv-x="811" d="M68 1135l41 153l149 -57l102 -57l-34 120v154h147v-154l-29 -106l117 51l141 39l41 -145l-155 -39h-125l98 -70l90 -135l-125 -82l-92 133l-33 127l-24 -127l-92 -133l-127 76l82 129l96 80l-115 -2z" />
<glyph unicode="+" horiz-adv-x="1024" d="M63 514v164h365v366h164v-366h366v-164h-366v-367h-164v367h-365z" />
<glyph unicode="," horiz-adv-x="299" d="M63 0v264h164v-219q0 -99 -13.5 -154t-44.5 -91t-97 -76v45q45 32 59 76.5t14 154.5h-82z" />
<glyph unicode="-" horiz-adv-x="468" d="M59 582v172h363v-172h-363z" />
<glyph unicode="." horiz-adv-x="299" d="M61 0v270h168v-270h-168z" />
<glyph unicode="/" horiz-adv-x="512" d="M18 0l314 1446h157l-311 -1446h-160z" />
<glyph unicode="0" horiz-adv-x="724" d="M66 332v833q0 73 15 126t56 93q78 80 232 80q60 0 107.5 -13t77.5 -32t51.5 -49.5t31.5 -54.5t15.5 -60t6 -53t0.5 -45v-846q0 -33 -0.5 -53t-6.5 -58.5t-16.5 -63t-32 -56t-52.5 -50t-79.5 -31.5t-109.5 -13q-62 0 -110 13t-78.5 30.5t-52.5 50t-32.5 57t-16 67t-6 64.5 t-0.5 64zM242 276q0 -25 0.5 -38t6.5 -36t17.5 -35.5t35.5 -23t58 -10.5q35 0 60 10.5t36.5 23.5t18 34.5t7.5 33t1 29.5v907q0 25 -1 40t-7 39.5t-17.5 38.5t-35.5 25t-57 11q-35 0 -60 -10.5t-36.5 -23.5t-18 -34t-7.5 -32.5t-1 -28.5v-920z" />
<glyph unicode="1" horiz-adv-x="724" d="M137 1092v141q89 9 141.5 58t75.5 147h125v-1438h-182v1092h-160z" />
<glyph unicode="2" horiz-adv-x="724" d="M74 967v219q0 28 0.5 44t6 48.5t15.5 53t31 47t50.5 42t76.5 26.5t106 11q145 0 218 -63q26 -23 41 -48.5t21.5 -68.5t7.5 -74t1 -104q0 -76 -0.5 -107.5t-7 -80.5t-14.5 -71t-31.5 -69.5t-50 -86.5t-76.5 -112q-62 -89 -91.5 -135t-63 -123t-46.5 -153h389v-162h-575 q0 107 8.5 178t37.5 154t81.5 169.5t142.5 209.5q42 59 58 83t34 63t22.5 76.5t4.5 96.5v144q0 21 -0.5 34.5t-6.5 36.5t-16.5 36.5t-32.5 24.5t-53 11q-32 0 -55 -9t-33.5 -20t-16.5 -31t-6.5 -30.5t-0.5 -30.5v-229h-176z" />
<glyph unicode="3" horiz-adv-x="724" d="M68 236v202h174v-184q0 -18 0.5 -29t6 -31t16 -31t32.5 -20.5t53 -9.5q39 0 64 12.5t34.5 35.5t12 39t2.5 40v275q0 50 -9.5 83t-29 52t-50 27.5t-73 10t-96.5 -0.5v170q123 -6 176 26t53 117v211q0 19 -2.5 32t-10.5 29.5t-28.5 25.5t-52.5 9q-34 0 -56 -10.5t-30 -30 t-10 -32t-2 -33.5v-129h-174v129q0 27 2 47.5t16.5 60.5t41 66.5t82.5 47.5t134 21q55 0 98 -9.5t70 -22.5t46.5 -35t29 -40t14.5 -45.5t5.5 -42t0.5 -38.5v-219q0 -98 -30.5 -137.5t-110.5 -57.5q101 -20 136.5 -78t35.5 -184v-250q0 -30 -0.5 -46.5t-3 -47t-7 -48.5 t-14.5 -44.5t-24 -42.5t-36 -35t-50 -29t-66.5 -17t-85.5 -7q-59 0 -105.5 11t-75.5 27t-50 41t-31 45t-15.5 48.5t-6 42t-0.5 33.5z" />
<glyph unicode="4" horiz-adv-x="724" d="M16 334v149l306 955h264v-951h102v-153h-102v-334h-172v334h-398zM180 487h234v758z" />
<glyph unicode="5" horiz-adv-x="724" d="M84 231v213h174v-194q0 -19 1 -31t6.5 -31.5t16 -31t32 -20.5t51.5 -9q27 0 47.5 6.5t32 20t18.5 26t10 34.5t3.5 33.5t0.5 33.5v467q0 63 -27.5 91.5t-84.5 28.5q-34 0 -57 -9.5t-34.5 -21.5t-17.5 -37t-7 -41t-1 -48h-154v727h518v-166h-356v-311q74 59 166 59 q231 0 231 -234v-534q0 -18 -0.5 -28.5t-3 -34.5t-7 -40t-14 -39.5t-23 -40t-35.5 -34.5t-49 -29t-65.5 -18.5t-84.5 -7.5q-124 0 -199 49q-55 37 -71.5 86t-16.5 116z" />
<glyph unicode="6" horiz-adv-x="724" d="M84 293v858q0 61 2.5 93t20 76.5t53.5 76.5q75 67 219 67q56 0 101 -12.5t73 -29.5t48.5 -46t30 -52t15 -57t6 -51t0.5 -45v-145h-168v158q0 44 -11 72.5t-31.5 40t-35.5 15t-36 3.5q-32 0 -55 -10.5t-34 -24t-16.5 -38t-6.5 -39t-1 -40.5v-364q67 86 178 86 q46 0 82.5 -11.5t59.5 -28.5t39.5 -44.5t24 -49.5t12 -55.5t5 -50.5t0.5 -45v-334q0 -113 -38 -172q-32 -41 -67 -63q-73 -45 -185 -45q-113 0 -183 49q-36 25 -58.5 56t-31 70t-10.5 64t-2 68zM258 268q0 -21 1 -33.5t7 -35.5t17 -36.5t35 -24.5t57 -11q32 0 55 10.5 t33.5 23.5t16.5 35t6.5 33t0.5 29v336q0 23 -0.5 35.5t-6.5 35t-17 34.5t-33.5 22t-54.5 10q-33 0 -57 -11t-35 -24.5t-17 -36t-7 -35t-1 -32.5v-324z" />
<glyph unicode="7" horiz-adv-x="724" d="M86 1268v164h543v-156q-120 -266 -183 -584q-29 -145 -46 -290.5t-20.5 -218.5t-6.5 -183h-209q27 388 88.5 661.5t216.5 606.5h-383z" />
<glyph unicode="8" horiz-adv-x="724" d="M66 283v174q0 155 31 214t134 85q-87 33 -116 74t-29 124v213q0 283 281 283q58 0 104 -12t74.5 -29t49.5 -46.5t30.5 -52.5t15 -60t6 -56t0.5 -53v-113q0 -120 -29 -181t-124 -91q45 -9 76.5 -27.5t47 -38.5t24 -53t10 -56t1.5 -63v-256q0 -72 -18.5 -127.5t-73.5 -95.5 q-76 -57 -205 -57q-290 0 -290 301zM240 268q0 -19 0.5 -31t7 -35.5t17.5 -37.5t35 -25.5t58 -11.5q35 0 59 11.5t36 26t18 43.5t7 48t1 57v232q0 64 -23 97.5t-96 33.5q-25 0 -44.5 -5.5t-32 -13t-21.5 -24t-13 -28t-6 -37t-2.5 -39t-0.5 -44.5v-217zM260 948 q0 -18 0.5 -28.5t6 -29.5t15 -30t29.5 -20t49 -9q32 0 54.5 10t33.5 23t17 35.5t7 37t1 38.5v186q0 27 -1 43t-6.5 39t-16 36t-31 22.5t-49.5 9.5q-31 0 -53 -10t-32.5 -22t-16.5 -33t-6.5 -32.5t-0.5 -31.5v-234z" />
<glyph unicode="9" horiz-adv-x="724" d="M66 850v336q0 22 0.5 37t6 47t15.5 54.5t31.5 51.5t51.5 47t77.5 30.5t107.5 12.5q115 0 185 -49q36 -25 58.5 -56t31 -70.5t10.5 -64.5t2 -69v-858q0 -35 -0.5 -55.5t-6.5 -57.5t-16.5 -60t-32 -52t-52.5 -45.5t-79 -28.5t-110 -12q-57 0 -101.5 12t-72.5 29.5t-48.5 46 t-30 51.5t-15 56.5t-6 51t-0.5 44.5v147h168v-160q0 -43 11 -71.5t31.5 -39.5t35.5 -14.5t36 -3.5q32 0 55 10t34.5 23.5t17.5 37t7 39.5t1 42v362q-69 -86 -180 -86q-40 0 -73.5 8t-55.5 24t-39 33t-27 43.5t-16 45.5t-8.5 48t-3 43.5t-0.5 39.5zM238 856q0 -23 0.5 -35.5 t6.5 -35t17 -34.5t33.5 -22t54.5 -10q34 0 58 11t35.5 24.5t17.5 36t7 35t1 32.5v324q0 23 -1 36.5t-7 36.5t-17.5 36t-35 23.5t-56.5 10.5t-56 -10t-34 -22t-17 -33.5t-6.5 -33t-0.5 -32.5v-338z" />
<glyph unicode=":" horiz-adv-x="382" d="M147 0v270h168v-270h-168zM147 662v264h168v-264h-168z" />
<glyph unicode=";" horiz-adv-x="382" d="M143 0v270h166v-247q0 -88 -19.5 -147t-52 -91t-87.5 -61v47q47 35 60 76.5t13 152.5h-80zM143 664v264h168v-264h-168z" />
<glyph unicode="&#x3c;" horiz-adv-x="1024" d="M0 635v176l1024 496v-179l-821 -405l821 -406v-178z" />
<glyph unicode="=" horiz-adv-x="1024" d="M0 328v159h1024v-159h-1024zM0 698v160h1024v-160h-1024z" />
<glyph unicode="&#x3e;" horiz-adv-x="1024" d="M0 139v178l821 406l-821 405v179l1024 -496v-176z" />
<glyph unicode="?" horiz-adv-x="681" d="M110.5 1178q2.5 57 16.5 100q24 77 85 119.5t157 42.5q70 0 123.5 -25t84 -68t45.5 -93.5t15 -106.5q0 -66 -19 -137t-38 -112t-52 -105q-86 -161 -102 -207t-18 -133h-146q0 92 12.5 148t55.5 147q93 202 113 259.5t20 133.5q0 73 -19 111t-77 38q-25 0 -42 -5.5 t-28.5 -23t-17.5 -33t-9 -52t-3.5 -63.5t-0.5 -83h-155q-3 91 -0.5 148zM256 0v264h164v-264h-164z" />
<glyph unicode="@" horiz-adv-x="1835" d="M141 481q0 189 71 366.5t193.5 312.5t300.5 216.5t379 81.5q276 0 442.5 -160t166.5 -432q0 -181 -67 -349t-177 -271t-227 -103q-45 0 -78 14t-50 31.5t-27.5 45.5t-12.5 43.5t-4 39.5q-127 -172 -295 -172q-10 0 -21.5 1t-40 7.5t-52.5 18t-53.5 37t-50.5 59.5t-35 90 t-14 125q0 144 60.5 278t161.5 217t213 83q158 0 233 -174l31 127h139l-67 -307q-3 -14 -11 -53.5t-11 -54t-9.5 -47.5t-9 -48t-7 -41.5t-6 -42.5t-3 -35.5t-1.5 -36.5q0 -31 9 -45.5t34 -34.5h21q45 0 98.5 49t100.5 128t78.5 190.5t31.5 224.5q0 237 -140 362.5 t-368 125.5q-124 0 -244.5 -43t-222 -123t-179 -186.5t-121.5 -241.5t-44 -279q0 -125 38.5 -229t103 -174.5t151 -119t181 -71t194.5 -22.5q192 0 366.5 78.5t321.5 218.5l67 -82q-160 -154 -352 -241t-397 -87q-70 0 -142.5 11t-150.5 36.5t-149 64t-135 98t-110.5 133 t-74 174.5t-27.5 218zM651 487q0 -59 16 -102.5t36 -63.5t47 -31t39 -12.5t22 -1.5q79 0 148.5 65t109 165.5t39.5 206.5q0 60 -16.5 104t-43 67t-54 33.5t-54.5 10.5q-66 0 -122.5 -43t-91.5 -109.5t-55 -142.5t-20 -146z" />
<glyph unicode="A" horiz-adv-x="681" d="M14 0l203 1446h232l223 -1446h-187l-36 266h-218l-32 -266h-185zM252 442h172l-72 502q-9 63 -12 230h-16q-7 -206 -11 -234z" />
<glyph unicode="B" horiz-adv-x="724" d="M86 0v1446h338q34 0 60 -2t48 -9.5t38 -14t28.5 -22.5t21 -28.5t14 -38.5t8.5 -45.5t4.5 -57.5t2 -65.5t0.5 -77.5v-69t-1.5 -58.5t-4 -52t-7 -40t-12 -35t-18.5 -24.5t-25.5 -19.5t-33.5 -10.5t-43 -6v-10q19 -2 31 -3.5t32.5 -8.5t33 -17t25 -30.5t17.5 -47.5 q6 -37 6 -293q0 -61 -1 -99.5t-5.5 -79t-12 -63.5t-21.5 -46.5t-33 -34.5t-48 -21t-64.5 -13t-84.5 -3h-293zM270 178h99q43 0 60 5.5t24 23.5q12 25 12 225q0 61 -1 96.5t-4.5 67t-8.5 46t-16 25t-23.5 13t-34.5 2.5h-107v-504zM270 840q110 0 137 5.5t39 33.5 q15 33 15 196q0 29 -4 103q-3 45 -8 63t-17 25q-10 6 -32.5 7t-129.5 1v-434z" />
<glyph unicode="C" horiz-adv-x="768" d="M82 348v699q0 30 0.5 48t3.5 54.5t8 61.5t16.5 60t27 59t40.5 50.5t56.5 42.5t75.5 26.5t96 10.5q62 0 110.5 -15t79.5 -36.5t53 -56.5t32.5 -63t16.5 -69t6.5 -61.5t0.5 -52.5v-184h-191v223q0 21 -1 34.5t-7 37.5t-17.5 38.5t-35.5 26.5t-58 12q-35 0 -59 -12.5 t-36 -28.5t-18 -45t-7 -46t-1 -48v-799q0 -33 1 -50t7 -43.5t17.5 -40t34.5 -24t57 -10.5q35 0 59 11.5t36 26.5t18 44t7 47.5t1 53.5v268h193v-244q0 -372 -318 -372q-83 0 -152.5 32.5t-107.5 96.5q-21 34 -31.5 80t-12 75.5t-1.5 81.5z" />
<glyph unicode="D" horiz-adv-x="724" d="M80 0v1446h350q59 0 101.5 -14t65 -34t35.5 -53.5t16 -62.5t3 -70v-962q0 -143 -44 -196.5t-161 -53.5h-366zM270 178h127q38 0 50 19.5t12 60.5v911q0 26 -1.5 40t-8.5 30.5t-24 23.5t-44 7h-111v-1092z" />
<glyph unicode="E" horiz-adv-x="598" d="M86 0v1446h477v-182h-282v-422h254v-178h-254v-482h284v-182h-479z" />
<glyph unicode="F" horiz-adv-x="598" d="M86 0v1448h496v-180h-306v-420h277v-176h-274v-672h-193z" />
<glyph unicode="G" horiz-adv-x="724" d="M82 338v715q0 79 2 116.5t14 86t37 87.5q74 119 238 119q53 0 95 -13t69 -31t46 -48.5t28 -54.5t14 -61.5t5.5 -57t0.5 -51.5v-152h-176v162q0 30 -1 47.5t-6 39t-14 33.5t-26 20t-41 8q-28 0 -47 -10.5t-28.5 -24t-14.5 -38.5t-6 -41.5t-1 -45.5v-832q0 -30 0.5 -46 t3 -40t8.5 -37t16.5 -26.5t27 -19t39.5 -5.5q27 0 46.5 10t29 22.5t14.5 33.5t5.5 32.5t0.5 30.5v328h-117v176h305v-770h-114l-17 68q-36 -44 -62 -61q-46 -30 -112 -30q-42 0 -77.5 9.5t-61 23.5t-45.5 37.5t-33 45t-22 52.5t-13.5 52.5t-6.5 53.5t-2.5 47t-0.5 40z" />
<glyph unicode="H" horiz-adv-x="724" d="M80 0v1446h190v-588h179v588h190v-1446h-193v672h-176v-672h-190z" />
<glyph unicode="I" horiz-adv-x="342" d="M76 0v1446h188v-1446h-188z" />
<glyph unicode="J" horiz-adv-x="598" d="M16 8v174q83 -28 179 -28q94 0 113.5 43.5t19.5 205.5v1043h190v-1004q0 -101 -1.5 -146.5t-10.5 -97.5t-29 -87q-68 -121 -260 -121q-78 0 -201 18z" />
<glyph unicode="K" horiz-adv-x="724" d="M80 0v1446h192v-574q0 -25 -1 -58t-1 -50q15 69 35 129l172 553h193l-238 -717l283 -729h-195l-213 565l-37 111v-676h-190z" />
<glyph unicode="L" horiz-adv-x="598" d="M86 0v1448h193v-1272h315v-176h-508z" />
<glyph unicode="M" horiz-adv-x="1024" d="M88 0v1446h270l119 -731q16 -97 20.5 -154.5t6.5 -161.5h16q4 187 23 312l108 735h281v-1446h-176v973q0 69 4 209h-17q-1 -8 -7.5 -70.5t-12 -117t-8.5 -72.5l-127 -922h-160l-127 893q-17 113 -31 289h-18q12 -204 12 -330v-852h-176z" />
<glyph unicode="N" horiz-adv-x="768" d="M84 0v1446h205l215 -926q23 -106 31 -143h12q-18 153 -21 205l-8 135l-8 729h178v-1446h-211l-237 1083h-13l11 -125l8 -124l16 -834h-178z" />
<glyph unicode="O" horiz-adv-x="768" d="M80 332v723q0 114 13.5 181.5t58.5 119.5q87 100 237 100q140 0 217 -82q55 -57 67.5 -130.5t12.5 -231.5v-686q0 -31 -1 -52.5t-7.5 -60.5t-17.5 -66t-34.5 -60t-56 -53t-83.5 -34t-115 -14q-186 0 -256 141q-16 31 -24.5 69.5t-9.5 63.5t-1 72zM270 295q0 -26 1.5 -44 t8 -40t17.5 -35.5t32.5 -23t51.5 -9.5q33 0 55.5 11.5t34.5 27.5t18.5 45.5t7.5 52t1 60.5v729q0 35 -0.5 52t-2.5 45.5t-6 42.5t-12 32.5t-19.5 27t-29.5 15t-41 6.5q-81 0 -106 -69q-11 -32 -11 -150v-776z" />
<glyph unicode="P" horiz-adv-x="681" d="M84 0v1446h371q67 0 108 -15.5t60 -51.5t24.5 -74.5t5.5 -106.5v-274q0 -68 -3 -107t-13.5 -74.5t-32 -52t-56 -26t-87.5 -9.5h-191v-655h-186zM272 827h121q36 0 52 13.5t16 52.5v303q0 41 -13.5 57.5t-58.5 16.5h-117v-443z" />
<glyph unicode="Q" horiz-adv-x="768" d="M80 309v717q0 129 11 194t48 117q86 119 258 119q121 0 195 -67q60 -54 78 -128t18 -208v-678q0 -44 -1 -72t-5.5 -69t-13.5 -67.5t-26 -58.5t-41 -52t-60.5 -37t-83.5 -25q0 -31 2 -46t10 -32t27.5 -24t52.5 -7q34 0 92 4v-176q-30 -1 -54 -1t-43 1q-36 1 -77 6.5 t-64.5 17.5t-47 32t-35.5 51t-20.5 74.5t-10.5 101.5q-38 12 -62.5 22.5t-55.5 34t-48.5 54t-30 82.5t-12.5 120zM270 307q0 -33 1 -50t6.5 -43t16.5 -38.5t33 -22.5t54 -10q76 0 97.5 44.5t21.5 158.5v768q0 42 -3 67.5t-13.5 53.5t-34.5 41.5t-62 13.5q-59 0 -88 -35 t-29 -96v-852z" />
<glyph unicode="R" horiz-adv-x="724" d="M84 0v1446h311q60 0 100 -5.5t70.5 -22t47 -39t26.5 -65.5t13 -91.5t3 -126.5q0 -56 -0.5 -89t-2.5 -74t-6.5 -63t-12.5 -48t-19.5 -38.5t-28.5 -24.5t-39.5 -16t-51.5 -4v-8q98 -11 126.5 -71.5t28.5 -215.5v-157q0 -130 6 -176t31 -111h-199q-30 158 -30 303v103 q0 166 -25 217q-16 31 -42 37t-116 6v-666h-190zM276 825h91q70 0 85 47.5t15 235.5q0 37 -1 60t-2.5 42.5t-7 29.5t-10.5 17.5t-17 10t-22.5 3.5t-31.5 1h-99v-447z" />
<glyph unicode="S" horiz-adv-x="681" d="M66 287v241h176v-264q0 -27 2 -44t10 -42.5t30 -39t56 -13.5q26 0 44 11t27.5 25.5t14 40.5t5.5 43.5t1 47.5q0 101 -28.5 172.5t-127.5 216.5q-54 78 -81.5 121t-59 106t-44.5 122t-13 126q0 117 49 199q74 119 244 119q129 0 186 -64.5t57 -183.5v-258h-174v256 q0 28 -3.5 46.5t-21 35t-50.5 16.5q-25 0 -43.5 -8.5t-28.5 -21.5t-16 -33.5t-7.5 -38.5t-1.5 -43q0 -103 35 -176.5t152 -243.5q46 -68 67.5 -104t51 -95t41.5 -117t12 -125q0 -154 -68 -247q-73 -97 -217 -97q-276 0 -276 314z" />
<glyph unicode="T" horiz-adv-x="681" d="M23 1276v170h639v-170h-226v-1276h-194v1276h-219z" />
<glyph unicode="U" horiz-adv-x="768" d="M82 315v1131h186v-1118q0 -38 1 -58t7 -50.5t17.5 -45.5t34.5 -27t57 -12q24 0 42.5 6.5t30.5 14.5t20.5 26t12.5 31t6 39t2.5 41.5t0.5 46.5v1106h188v-1096q0 -32 -0.5 -53t-6.5 -64t-17 -72.5t-34 -67t-54.5 -61t-82 -39.5t-114.5 -16q-297 0 -297 338z" />
<glyph unicode="V" horiz-adv-x="681" d="M12 1448h191l108 -834q3 -28 8.5 -70t7 -57t4.5 -42t4 -45l2.5 -45t2.5 -62h20q2 102 5.5 146.5t23.5 189.5l103 819h188l-221 -1448h-223z" />
<glyph unicode="W" horiz-adv-x="980" d="M12 1446h187l73 -907q10 -106 13 -252h12q0 174 10 272l88 887h172l97 -887q13 -114 16 -270h14q0 143 15 325l69 832h191l-168 -1446h-221l-80 786q-8 82 -8 252h-19q0 -184 -4 -229l-78 -809h-217z" />
<glyph unicode="X" horiz-adv-x="681" d="M10 0l221 745l-219 701h191l106 -332q13 -47 17 -135h18q6 104 25 168l92 299h190l-213 -698l234 -748h-193l-121 401q-7 23 -14 129h-16q-11 -120 -15 -135l-114 -395h-189z" />
<glyph unicode="Y" horiz-adv-x="681" d="M6 1446h197l84 -336q24 -97 41 -279h14q14 169 49 295l90 320h193l-240 -840v-606h-207v604z" />
<glyph unicode="Z" horiz-adv-x="598" d="M31 0v127l342 1151h-260v170h460v-125l-337 -1149h309v-174h-514z" />
<glyph unicode="[" horiz-adv-x="555" d="M123 -401v1902h346v-98h-176v-1706h172v-98h-342z" />
<glyph unicode="\" horiz-adv-x="512" d="M18 1446h160l311 -1446h-157z" />
<glyph unicode="]" horiz-adv-x="555" d="M90 -303h176v1706h-172v98h342v-1902h-346v98z" />
<glyph unicode="^" horiz-adv-x="1492" d="M291 690l385 756h158l368 -756h-198l-254 531l-263 -531h-196z" />
<glyph unicode="_" horiz-adv-x="1024" d="M-20 -154h1064v-102h-1064v102z" />
<glyph unicode="`" horiz-adv-x="425" d="M35 1417h209l147 -246h-98z" />
<glyph unicode="a" d="M70 172v195q0 39 2 58.5t10.5 48.5t30 51.5t57.5 45.5l158 99q26 17 45.5 36t19.5 27v164q0 24 -3.5 39.5t-20 30t-47.5 14.5q-25 0 -41 -7.5t-22 -22.5t-7.5 -25t-1.5 -27v-154h-168v134q0 20 0.5 33t5 40.5t12.5 46t25.5 42.5t42 39t63.5 25.5t88 10.5t88 -10 t63.5 -23.5t42 -36.5t26 -41.5t13 -46t5 -41.5t0.5 -36v-695q0 -123 31 -186h-176q-19 45 -29 88q-20 -31 -35 -48.5t-48 -34.5t-75 -17q-44 0 -75.5 15t-46.5 33.5t-23 49t-9 46t-1 40.5zM233 250q0 -30 1.5 -46t7 -39.5t20 -34.5t37.5 -11q26 0 45.5 15.5t28.5 35t14 47.5 t5.5 41.5t0.5 28.5v258q-29 -25 -100 -72q-34 -24 -47 -50t-13 -63v-110z" />
<glyph unicode="b" d="M80 0v1446h164v-426q52 92 157 92q93 0 138 -68q28 -44 28 -120v-693q0 -16 -0.5 -27.5t-4 -39.5t-10.5 -49t-22 -47.5t-35.5 -44t-53.5 -29.5t-74 -12q-40 0 -69.5 11t-47 31t-26 34t-15.5 34q-26 -44 -37 -92h-92zM244 248q0 -22 0.5 -34t4.5 -30.5t11.5 -28t23.5 -17 t38 -7.5q39 0 59 25.5t20 68.5v649q0 19 -1.5 29.5t-7 28t-21.5 26.5t-41 9q-28 0 -47 -12t-26.5 -31.5t-10 -34t-2.5 -29.5v-612z" />
<glyph unicode="c" horiz-adv-x="598" d="M74 215v649q0 18 0.5 30.5t5 41t13 49.5t27 47.5t43.5 43t65 28.5t91 12t91 -11t65.5 -27.5t44 -42t27.5 -47t14 -51.5t5.5 -46t0.5 -39v-150h-166v187q0 42 -17 65t-65 23q-24 0 -40.5 -7.5t-25 -16t-12.5 -26.5t-4.5 -28t-0.5 -31v-665q0 -86 79 -86q25 0 42 8 t25.5 17.5t13 28t5 29.5t0.5 31v203h164v-198q0 -256 -246 -256q-66 0 -113.5 16t-72 38.5t-39 57t-17.5 61.5t-3 62z" />
<glyph unicode="d" d="M82 180v729q0 203 168 203q33 0 63.5 -14t45.5 -27.5t40 -40.5v418h166v-1448h-166v76l-15 -20t-16 -19.5t-22.5 -21t-25 -15t-33.5 -13t-39 -3.5q-166 0 -166 196zM244 219q0 -13 0.5 -20.5t4 -22.5t10.5 -23t22 -15t36 -7q82 0 82 129v598q0 19 -1.5 32t-8 32.5t-23 30 t-42.5 10.5q-23 0 -39 -8.5t-24 -19t-12 -28.5t-4.5 -28.5t-0.5 -28.5v-631z" />
<glyph unicode="e" d="M80 209v588q0 137 20 184q24 64 85.5 98.5t140.5 34.5q50 0 89.5 -11.5t64 -28t42.5 -42.5t26.5 -46t13 -48t5 -40.5t0.5 -29.5v-356h-325v-307q0 -14 0.5 -22t4.5 -22.5t11.5 -23t23 -15.5t37.5 -7q82 0 82 100v193h166v-156q0 -270 -250 -270q-55 0 -98 14 q-39 13 -67.5 35.5t-42 44t-20.5 51.5t-8 45t-1 37zM242 649h159v230q0 19 -0.5 28.5t-4 25.5t-11 24.5t-22.5 15t-37 6.5q-24 0 -41 -8t-25 -18.5t-12.5 -29.5t-5 -30.5t-0.5 -32.5v-211z" />
<glyph unicode="f" horiz-adv-x="382" d="M18 958v136h93v192q0 41 4.5 66t18.5 49.5t44.5 35.5t79.5 11q46 0 111 -6v-142q-21 1 -38 0t-28.5 -6t-17.5 -19t-6 -38v-143h96v-136h-99v-958h-167v958h-91z" />
<glyph unicode="g" d="M76 -68h164q-3 -5 -0.5 -19.5t7 -29.5t23.5 -27t49 -12q76 0 76 90v142q-62 -86 -151 -86q-168 0 -168 186v737q0 105 47 156q47 47 119 47q105 0 155 -96v78h164v-1135q0 -166 -115 -227q-57 -29 -133 -29q-27 0 -55 4.5t-63 19t-61 38t-43 65.5q-15 39 -15 87v11z M236 254q0 -29 1.5 -44.5t8 -35t23 -28.5t42.5 -9q29 0 47.5 11.5t26.5 32.5t10 38t2 41v567q0 25 -1 42t-6 37t-13.5 32t-24.5 20.5t-39 8.5q-19 0 -32.5 -4t-22 -16.5t-13 -22t-6.5 -35.5t-2.5 -41t-0.5 -53v-541z" />
<glyph unicode="h" d="M82 0v1448h164v-424q18 26 33 42t48 32t74 16q40 0 70.5 -11.5t48 -34t28.5 -44t15 -53.5t5 -48.5t1 -43.5v-879h-166v862q0 48 -15 74.5t-60 26.5q-29 0 -47 -11.5t-25 -32.5t-8.5 -34.5t-1.5 -34.5v-850h-164z" />
<glyph unicode="i" horiz-adv-x="342" d="M88 0v1096h164v-1096h-164zM92 1223v219h162v-219h-162z" />
<glyph unicode="j" horiz-adv-x="342" d="M-37 -141q36 -4 55 -4q76 0 76 75v1166h166v-1112q0 -51 -3 -84.5t-16.5 -72.5t-37.5 -61.5t-68.5 -37.5t-107.5 -15q-24 0 -64 4v142zM94 1221v219h166v-219h-166z" />
<glyph unicode="k" horiz-adv-x="598" d="M84 0v1446h164v-787l166 437h176l-191 -418l185 -678h-174l-127 504l-35 -86v-418h-164z" />
<glyph unicode="l" horiz-adv-x="342" d="M88 0v1446h166v-1446h-166z" />
<glyph unicode="m" horiz-adv-x="980" d="M86 0v1098h162v-76q20 30 33 45t45 31t75 16q39 0 68.5 -10.5t47 -30.5t25.5 -33.5t17 -33.5q11 20 20.5 33t30 33t50.5 31t67 11q35 0 63 -9t45.5 -22t30.5 -35t19 -40t9.5 -45.5t4 -43t0.5 -40.5v-879h-166v864q0 24 -1.5 37.5t-8.5 30.5t-23.5 25t-42.5 8 q-24 0 -40.5 -8t-24.5 -17.5t-12 -29t-4.5 -29t-0.5 -31.5v-850h-165v860q0 24 -1.5 38.5t-8 32.5t-22.5 27t-42 9q-84 0 -84 -115v-852h-166z" />
<glyph unicode="n" d="M80 0v1096h162v-70q23 27 36 41t48.5 31.5t76.5 17.5q47 0 80.5 -17.5t49.5 -39.5t25 -59t10 -57.5t1 -53.5v-889h-168v858q0 20 -0.5 30t-4 27.5t-10.5 26t-21 16t-35 7.5q-25 0 -42 -9.5t-25.5 -21.5t-13 -34t-5 -35t-0.5 -36v-829h-164z" />
<glyph unicode="o" d="M78 250v45v506q0 25 0.5 39t2.5 42.5t6 47t13 45t21 44t31 37.5t43.5 31.5t58 19t74.5 7.5q39 0 72 -6.5t56 -16t42 -26t30.5 -31t19.5 -36.5t12 -37t6.5 -38t2.5 -34v-31v-616q0 -33 -2 -57t-15.5 -65.5t-38 -68.5t-74.5 -48t-120 -21q-39 0 -72 7t-56.5 17t-41.5 29 t-30 34.5t-20 42.5t-12 44t-6.5 48t-2.5 46zM242 215q0 -18 0.5 -27.5t4.5 -25t12 -24t24 -15t39 -6.5q29 0 47.5 9.5t26.5 28t10 34t2 38.5v647q0 19 -1 31t-5 27.5t-12 24.5t-23.5 15.5t-38.5 6.5q-30 0 -49 -10.5t-26.5 -32t-9 -36t-1.5 -40.5v-645z" />
<glyph unicode="p" d="M78 -297v1395h164v-76q16 21 24.5 30.5t29 27.5t46 26t57.5 8q164 0 164 -205v-698q0 -19 -1 -33t-5 -44.5t-15 -52.5t-28.5 -45.5t-48 -36.5t-70.5 -13q-26 0 -49 7.5t-36.5 15t-30.5 25t-20.5 22t-16.5 22.5v-375h-164zM242 236q0 -18 1.5 -30t8 -31t24.5 -29.5 t46 -10.5q77 0 77 105v620q0 55 -15.5 82t-57.5 27q-24 0 -41 -9.5t-25 -21.5t-12.5 -33.5t-5 -34t-0.5 -34.5v-600z" />
<glyph unicode="q" d="M74 176v692q0 28 0.5 44t3.5 45.5t9 48t18 42t29.5 36.5t44.5 22.5t61 9.5q105 0 170 -108q20 29 27.5 44t17.5 46h104v-1393h-166v375q-15 -19 -25 -29t-31.5 -27t-48.5 -25.5t-59 -8.5q-37 0 -65.5 9.5t-44.5 28t-26 35.5t-13.5 42.5t-4.5 38t-1 32.5zM236 229 q0 -17 0.5 -25.5t4 -24t10 -23.5t20.5 -14.5t34 -6.5q24 0 41.5 9.5t26.5 22.5t14.5 34.5t6.5 38t1 39.5v544q0 28 -1 44t-5 37.5t-12.5 32.5t-24.5 19.5t-39 8.5q-22 0 -37 -7t-23 -16t-12 -24t-4.5 -24t-0.5 -24v-641z" />
<glyph unicode="r" horiz-adv-x="468" d="M80 0v1098h168v-127l20 40t22.5 35t31.5 34t40 20.5t54 9.5q17 0 45 -4v-191q-47 33 -99 33q-28 0 -49 -10t-33.5 -29.5t-20.5 -38t-11 -47.5t-3.5 -45.5t-0.5 -42.5v-735h-164z" />
<glyph unicode="s" horiz-adv-x="598" d="M49 403h156q0 -179 5 -210q18 -68 89 -68q31 0 50.5 13t27 38.5t9 43t1.5 46.5q0 52 -16.5 92t-71.5 97l-89 88q-87 90 -115.5 149.5t-28.5 149.5q0 122 58 196t185 74q37 0 67.5 -7t53 -16.5t40 -28.5t29 -35.5t19.5 -44.5t12.5 -47.5t6.5 -54t3 -54t1 -56.5h-154 q0 110 -16.5 151.5t-71.5 41.5q-80 0 -80 -105q0 -50 17.5 -86t70.5 -88l76 -74q41 -40 63.5 -66t50 -67.5t40 -90.5t12.5 -108q0 -148 -70.5 -222t-183.5 -74q-76 0 -137 33t-88 110q-14 41 -17.5 89t-3.5 191z" />
<glyph unicode="t" horiz-adv-x="382" d="M14 958v136h101v237h164v-237h94v-136h-94v-757q0 -53 21 -67q17 -11 63 -12q10 0 23 1v-125q-73 -10 -95 -10q-61 0 -97.5 10.5t-54 36.5t-22 54t-4.5 79v790h-99z" />
<glyph unicode="u" d="M76 207v889h168v-858q0 -20 0.5 -30t4 -27.5t10.5 -26t21 -16t35 -7.5q30 0 49 12t26.5 36.5t9 41t1.5 45.5v830h164v-1096h-162v70q-21 -26 -35.5 -41.5t-49.5 -32t-76 -16.5q-47 0 -80.5 17.5t-49.5 39.5t-25 59t-10 57.5t-1 53.5z" />
<glyph unicode="v" horiz-adv-x="555" d="M14 1096h168l68 -559q12 -104 20 -322h17q7 210 14 270l74 611h168l-170 -1096h-197z" />
<glyph unicode="w" horiz-adv-x="811" d="M16 1096h158l41 -547q8 -113 8 -316h13q14 158 28 273l78 590h119l71 -602q2 -13 25 -263h14q0 188 13 355l43 510h161l-137 -1096h-184l-41 348q-18 141 -18 348h-17q0 -145 -10 -260l-53 -436h-183z" />
<glyph unicode="x" horiz-adv-x="598" d="M8 0l199 590l-170 510h164l43 -160q35 -129 43 -184q4 -21 8 -56h12q26 157 51 246l39 150h164l-170 -502l187 -594h-170l-80 332q-14 62 -21 112h-12q-28 -118 -37 -149l-90 -295h-160z" />
<glyph unicode="y" horiz-adv-x="555" d="M8 1096h168l72 -652q2 -19 10 -109t10 -110h17q3 142 8 208.5t22 199.5l58 461h170l-209 -1221q-14 -91 -65 -128.5t-136 -37.5q-27 0 -88 4v160q16 0 34 -0.5t35.5 5t31.5 15t22.5 31t7.5 51.5q0 18 -4 50z" />
<glyph unicode="z" horiz-adv-x="555" d="M23 0v156l333 788h-262v152h441v-156l-334 -784h325v-156h-503z" />
<glyph unicode="{" horiz-adv-x="724" d="M145 473v113q65 17 95 46t41.5 89.5t11.5 187.5v156q0 68 1.5 101.5t7.5 82t21.5 83.5t41.5 65q27 31 60.5 50.5t76 28t68 11t73.5 4.5v-109q-35 -4 -60.5 -10.5t-45.5 -21t-33 -25t-22 -40t-13.5 -48.5t-6.5 -67t-2.5 -79t-0.5 -100q0 -89 -1 -129.5t-5.5 -101 t-14.5 -88t-28.5 -60.5t-47.5 -49.5t-71 -27.5v-9q42 -11 71 -28t47.5 -50.5t28.5 -61t14.5 -88t5.5 -101t1 -129.5q0 -237 26 -306.5t152 -85.5v-108q-54 4 -80 7t-67 12.5t-70.5 28.5t-54.5 48q-26 30 -41.5 64.5t-21.5 83t-7.5 82.5t-1.5 102v145q0 181 -27 246.5 t-121 85.5z" />
<glyph unicode="|" horiz-adv-x="468" d="M152 -512v2048h163v-2048h-163z" />
<glyph unicode="}" horiz-adv-x="724" d="M82 -322q47 6 77.5 15t51.5 34t32 45t16 74.5t6 93.5t1 130v79.5t1 69t3.5 64t6.5 53.5t10 49t15 39.5t21.5 36t28.5 27t36.5 23t45.5 15.5v9q-25 7 -45.5 15.5t-36.5 23t-28.5 27t-21.5 36t-15 39.5t-10 49t-6.5 53.5t-3.5 64t-1 69v79.5q0 237 -26 306t-152 85v109 q54 -4 80 -7t67 -12.5t70.5 -28.5t54.5 -48q26 -30 41.5 -64.5t21.5 -82.5t7.5 -82t1.5 -101v-147q0 -181 27 -246t121 -86v-113q-65 -17 -95 -46t-41.5 -89t-11.5 -186v-156q0 -68 -1.5 -102t-7.5 -82.5t-21.5 -83t-41.5 -64.5q-27 -31 -60.5 -50.5t-76 -28t-68 -11 t-73.5 -4.5v108z" />
<glyph unicode="~" horiz-adv-x="1492" d="M254 592q24 33 42.5 55t53.5 53t79.5 47.5t96.5 16.5q37 0 76 -9.5t67.5 -21t84.5 -37.5q90 -42 132.5 -57.5t76.5 -15.5q97 0 198 127l78 -148q-56 -71 -129 -116.5t-152 -45.5q-40 0 -82.5 13.5t-119.5 50.5q-97 47 -140.5 63.5t-85.5 16.5q-29 0 -49.5 -5.5t-45 -26 t-41.5 -39.5t-58 -67z" />
<glyph unicode="&#xa1;" horiz-adv-x="382" d="M80 1167v265h164v-265h-164zM82 0v557l35 422h90l37 -471v-508h-162z" />
<glyph unicode="&#xa2;" d="M82 217v649q0 19 0.5 31.5t4.5 38t11 44t21.5 42.5t35.5 40.5t54 31t74 20.5v117h77v-115q58 -7 99.5 -27t63.5 -43.5t34 -59.5t15 -64t3 -68v-149h-165v186q0 42 -17 65t-65 23q-24 0 -41 -7.5t-25 -16.5t-12.5 -26t-5 -28t-0.5 -31v-665q0 -86 80 -86q25 0 42 8 t25.5 17.5t13 28t5 29.5t0.5 31v203h163v-198q0 -26 -1.5 -45.5t-7.5 -50t-20 -53.5t-36.5 -46t-60 -38t-87.5 -21v-134h-77v134q-111 13 -156 70t-45 163z" />
<glyph unicode="&#xa3;" horiz-adv-x="980" d="M41 135q0 78 61 121t144 43q49 0 147 -25q15 66 15 99q0 42 -11 90.5t-21.5 77t-33.5 84.5h-215v137h164q-24 65 -36.5 103.5t-27 111t-14.5 137.5q0 167 90 257.5t227 90.5q64 0 113.5 -15t80.5 -41t53.5 -61.5t32.5 -77t16 -86.5t5 -90.5t0 -89.5h-176q0 168 -12 217 q-18 71 -77 83q-13 2 -29 2q-68 0 -99.5 -50t-31.5 -131q0 -93 21.5 -171t66.5 -187h215v-137h-160q20 -106 20 -164q0 -54 -8 -100.5t-18 -73.5t-29 -72q122 -72 162 -72q49 0 63 48q13 40 13 217h166q0 -20 1 -60.5t1 -62.5q0 -29 -0.5 -46.5t-4.5 -51.5t-11.5 -56 t-22.5 -49.5t-37 -44t-56 -28t-77 -11.5q-123 0 -256 117q-20 -23 -31.5 -34.5t-36.5 -33t-47 -32.5t-55.5 -20t-69.5 -9q-72 0 -123 37.5t-51 109.5zM141 135q0 -20 17.5 -35.5t46.5 -15.5q30 0 69.5 20t69.5 64q-77 25 -115 25q-36 0 -62 -14t-26 -44z" />
<glyph unicode="&#xa4;" horiz-adv-x="1366" d="M86 221l156 154q-37 58 -54 89t-34 94t-17 138q0 61 10 113t29 92.5t32.5 62.5t33.5 50l-154 153l123 123l154 -153q42 29 73.5 47t100 37.5t143.5 19.5q57 0 101.5 -7t85.5 -24.5t63.5 -31t66.5 -41.5l156 153l123 -123l-154 -153q29 -48 41.5 -69.5t30.5 -62.5 t24.5 -84t6.5 -98q0 -78 -16.5 -141.5t-33.5 -94t-55 -89.5l156 -158l-125 -121l-154 156q-60 -37 -92.5 -54.5t-93 -32.5t-135.5 -15q-72 0 -134 17t-94.5 34.5t-84.5 52.5l-156 -156zM301 702q0 -92 34 -168.5t89 -124.5t121 -74t133 -26q166 0 275.5 111t109.5 276 q0 90 -34 165t-88.5 122t-119.5 72.5t-131 25.5q-172 0 -280.5 -111.5t-108.5 -267.5z" />
<glyph unicode="&#xa5;" horiz-adv-x="681" d="M8 1446h195l84 -336q28 -114 43 -291h10q21 204 51 307l90 320h191l-176 -621h143v-129h-180l-25 -94v-18h205v-129h-205v-455h-207v455h-198v129h198v18l-24 94h-174v129h139z" />
<glyph unicode="&#xa6;" horiz-adv-x="468" d="M154 -358v716h163v-716h-163zM154 666v716h163v-716h-163z" />
<glyph unicode="&#xa7;" horiz-adv-x="811" d="M66 207h176q-4 -98 6 -133q17 -50 56.5 -72t82.5 -22q67 0 107.5 40.5t40.5 100.5q0 72 -56 125q-24 22 -50 37.5t-130 68.5q-30 15 -51.5 27.5t-58.5 41.5t-60 60.5t-41 81.5t-18 107q0 45 11.5 85t26 66t39.5 52t39.5 38t38.5 29q-29 28 -46.5 48t-40.5 54t-34.5 74.5 t-11.5 87.5q0 126 87.5 212.5t226.5 86.5q141 0 221 -84q38 -40 56.5 -92t18 -97.5t-1.5 -94.5h-155q5 34 1 74.5t-13 75.5t-41 59t-84 24q-59 0 -97.5 -35.5t-38.5 -93.5q0 -38 17 -73t39 -59t63.5 -51t68 -41t75.5 -38q25 -13 36 -18.5t39.5 -23.5t44 -32.5t39 -40 t35.5 -50.5t21.5 -61t9.5 -75q0 -159 -152 -299q58 -57 83.5 -110.5t25.5 -121.5q0 -128 -90 -217.5t-246 -89.5q-99 0 -164 35.5t-100 83.5q-24 35 -36 80.5t-13.5 77.5t-1.5 92zM246 684q0 -30 11.5 -56t26 -43.5t49 -41t58 -37t76.5 -41.5q119 74 119 176q0 34 -13 63 t-29.5 48.5t-50 41t-56.5 33t-66 31.5q-21 -14 -31 -20.5t-31.5 -25t-32.5 -34.5t-20.5 -41.5t-9.5 -52.5z" />
<glyph unicode="&#xa8;" horiz-adv-x="425" d="M4 1212v207h150v-207h-150zM272 1212v207h150v-207h-150z" />
<glyph unicode="&#xa9;" horiz-adv-x="1705" d="M125 725q0 202 98 369.5t265 262.5t364 95q153 0 288.5 -56.5t232 -154t152.5 -233t56 -287.5q0 -145 -55 -278t-150.5 -232t-232 -158t-291.5 -59q-143 0 -275.5 54t-232.5 148.5t-159.5 232.5t-59.5 296zM190 725q0 -140 53.5 -264.5t143.5 -212t212 -138.5t255 -51 q184 0 336.5 89t239 241t86.5 332q0 183 -85.5 335.5t-237.5 241t-337 88.5t-338.5 -90t-240.5 -241.5t-87 -329.5zM383 721q0 215 138.5 353t344.5 138q79 0 144 -17.5t114 -51t73.5 -56t57.5 -59.5l-114 -108q-33 34 -53 52t-55 41.5t-75.5 34.5t-89.5 11 q-131 0 -228 -90.5t-97 -245.5q0 -146 96 -237t229 -91q54 0 99 12.5t80 37t52 40.5t42 43l114 -100q-157 -186 -385 -186q-146 0 -258.5 66.5t-170.5 175t-58 237.5z" />
<glyph unicode="&#xaa;" horiz-adv-x="382" d="M54.5 1054q-0.5 10 1 28t3 23.5t7.5 18.5t12 17.5t18.5 15.5t25 19t34.5 22q39 24 49.5 32t19.5 23v11q0 81 -3.5 95.5t-24.5 14.5q-26 0 -30.5 -17t-2.5 -106h-101q0 80 2 103t11 43q30 61 117 61q38 0 65 -11.5t39.5 -25t19.5 -37t8 -36t1 -31.5v-346q0 -50 2.5 -69 t11.5 -44h-100q-2 5 -7.5 18.5t-7.5 18.5q-12 -14 -20 -21t-25 -14.5t-37 -7.5q-25 0 -43 9t-26.5 20.5t-13 30.5t-5 30t-0.5 29v45.5t-0.5 37.5zM154 1032q0 -74 6 -88q4 -9 20 -11.5t31.5 19.5t13.5 72v113q-53 -37 -57 -43q-10 -10 -12 -21t-2 -41z" />
<glyph unicode="&#xab;" horiz-adv-x="681" d="M55 559v215l269 244v-205l-160 -147l162 -146v-205zM356 559v221l271 238v-205l-162 -145l164 -146v-200z" />
<glyph unicode="&#xac;" horiz-adv-x="1366" d="M0 518v162h1366v-680h-164v518h-1202z" />
<glyph unicode="&#xad;" horiz-adv-x="468" d="M59 582v172h363v-172h-363z" />
<glyph unicode="&#xae;" horiz-adv-x="1705" d="M125 723q0 154 59 290.5t157.5 232t232 151t278.5 55.5q151 0 286.5 -56.5t233 -153.5t154.5 -232.5t57 -288.5q0 -144 -55 -277t-150.5 -232.5t-233 -158.5t-292.5 -59q-141 0 -273 54t-232.5 148t-161 231.5t-60.5 295.5zM190 723q0 -184 89.5 -337t242 -240t332.5 -87 q140 0 264.5 54t211.5 144t137.5 211.5t50.5 252.5q0 183 -86 335t-239 241t-341 89q-133 0 -255 -51.5t-211.5 -139.5t-142.5 -211.5t-53 -260.5zM545 268v920h299q152 0 215 -23q71 -25 109 -84.5t38 -128.5q0 -22 -3.5 -43t-15.5 -48.5t-31.5 -50t-55 -43t-82.5 -32.5 q64 -27 91 -69.5t40 -122.5q15 -107 28 -162.5t42 -112.5h-187q-17 34 -25 65.5t-20 110.5q-3 16 -4 25q-7 42 -11 65.5t-12.5 49.5t-15.5 38.5t-23 26t-32 18t-44.5 9t-58.5 5.5t-77 1v-414h-164zM711 813h135q24 0 38.5 0.5t41.5 4t44 11.5t35.5 21.5t27.5 36.5t9 53 q0 78 -65 109q-23 8 -51.5 10t-110.5 2h-104v-248z" />
<glyph unicode="&#xaf;" horiz-adv-x="425" d="M4 1212v127h418v-127h-418z" />
<glyph unicode="&#xb0;" horiz-adv-x="724" d="M31 1217q0 136 97 232.5t234 96.5q136 0 233 -97t97 -232q0 -137 -97 -233.5t-233 -96.5q-138 0 -234.5 96.5t-96.5 233.5zM201 1221q0 -68 47 -115t114 -47q68 0 115 47.5t47 114.5t-48 114t-114 47q-67 0 -114 -46.5t-47 -114.5z" />
<glyph unicode="&#xb1;" horiz-adv-x="1024" d="M63 0v162h898v-162h-898zM63 700v162h371v367h162v-367h365v-162h-365v-370h-162v370h-371z" />
<glyph unicode="&#xb2;" horiz-adv-x="468" d="M49 543q0 76 7.5 128t33 106.5t50.5 93t83 118.5q49 69 61.5 101.5t12.5 107.5q0 104 -9.5 132t-54.5 28q-24 0 -39 -8.5t-20.5 -25.5t-6.5 -27t-1 -29v-127h-117v127q0 30 1 47.5t10.5 47.5t27 47t53 30.5t86.5 13.5q100 0 150 -47q27 -29 33 -63t6 -125q0 -71 -2.5 -99 t-14.5 -59q-14 -47 -110 -184q-98 -140 -109 -228h240v-106h-371z" />
<glyph unicode="&#xb3;" horiz-adv-x="468" d="M47 815h117v-110q0 -12 0.5 -19t3.5 -20t9.5 -20t20.5 -13t33 -6q66 0 66 84v157q0 33 -7 53.5t-16 32t-33.5 16.5t-43.5 6t-62 1v113q41 0 57.5 1t37 7t32.5 20q14 17 16.5 43.5t2.5 143.5q0 18 -2 28t-15 19.5t-39 9.5q-31 0 -45 -14q-10 -10 -12 -27.5t-2 -103.5h-117 q0 39 0.5 57.5t3.5 49.5t9.5 45.5t19 34t31 28.5t46 15.5t64.5 6.5q50 0 85 -12t52 -26.5t26 -39t10 -38t1 -35.5v-115q0 -72 -22.5 -101.5t-67.5 -37.5q31 -9 51.5 -22t32 -25.5t16.5 -36t6 -41t1 -54.5v-141q0 -25 -0.5 -39.5t-4 -39t-10 -39t-20 -33t-32 -28.5t-48 -17 t-66.5 -7q-157 0 -182 113q-4 23 -4 176z" />
<glyph unicode="&#xb4;" horiz-adv-x="425" d="M37 1169l147 248h203l-256 -248h-94z" />
<glyph unicode="&#xb5;" d="M76 -297v1393h168v-858q0 -20 0.5 -30t4 -27.5t10.5 -26t21 -16t35 -7.5q30 0 49 12t26.5 36.5t9 41t1.5 45.5v830h164v-1096h-162v70q-16 -26 -25.5 -39t-30 -27t-44.5 -14q-26 0 -59 26v-313h-168z" />
<glyph unicode="&#xb6;" horiz-adv-x="1366" d="M178 1036q0 27 3 55.5t15 70t30.5 79t53.5 76t81.5 66.5t116.5 45.5t155 17.5h471v-111h-70v-1675h-119v1675h-297v-1675h-116v993q-50 10 -78.5 18t-67.5 30.5t-73 58.5q-105 108 -105 276z" />
<glyph unicode="&#xb7;" horiz-adv-x="299" d="M61 530v271h168v-271h-168z" />
<glyph unicode="&#xb8;" horiz-adv-x="425" d="M33 -287q54 -3 93.5 2t58 13t28.5 20t11 18t1 13q0 19 -11 31t-36.5 18t-45.5 8t-58 4l145 244h96l-88 -160q166 -8 166 -114q0 -24 -8 -45t-31.5 -44t-61.5 -39t-104.5 -25.5t-154.5 -6.5v63z" />
<glyph unicode="&#xb9;" horiz-adv-x="468" d="M98 1217v94q62 10 92 40.5t48 94.5h81v-905h-120v676h-101z" />
<glyph unicode="&#xba;" horiz-adv-x="382" d="M57 1020v291q0 149 140 149q38 0 65 -12t39.5 -26.5t19.5 -38.5t8 -37.5t1 -34.5v-307q0 -22 -1 -35.5t-8 -38.5t-19.5 -39.5t-39.5 -26.5t-65 -12q-40 0 -68 13t-41.5 30t-21 44t-8.5 42.5t-1 38.5zM156 995q0 -15 0.5 -21t3.5 -16.5t10.5 -15t19.5 -4.5q11 0 19 3.5 t12 8t5.5 13.5t2 15.5t0.5 18.5v318q0 21 -1.5 31t-9 19t-23.5 9q-14 0 -22.5 -5t-12 -15.5t-4 -18.5t-0.5 -24v-316z" />
<glyph unicode="&#xbb;" horiz-adv-x="681" d="M55 811v201l273 -238v-219l-271 -240v205l162 146zM360 813v205l271 -244v-215l-269 -244v205l160 148z" />
<glyph unicode="&#xbc;" horiz-adv-x="1193" d="M98 1217v94q62 10 92 40.5t48 94.5h81v-905h-120v676h-101zM233 -10l633 1507l101 -43l-633 -1505zM745 203v102l197 594h168v-594h64v-102h-64v-203h-109v203h-256zM854 305h147v486z" />
<glyph unicode="&#xbd;" horiz-adv-x="1193" d="M98 1217v94q62 10 92 40.5t48 94.5h81v-905h-120v676h-101zM203 -10l633 1507l100 -43l-633 -1505zM774 0q0 76 7.5 128t33 106.5t50.5 93t83 118.5q49 69 61.5 101.5t12.5 107.5q0 104 -9.5 132t-54.5 28q-24 0 -39 -8.5t-20.5 -25.5t-6.5 -27t-1 -29v-127h-117v127 q0 30 1 47.5t10.5 47.5t27 47t53 30.5t86.5 13.5q100 0 150 -47q27 -29 33 -63t6 -125q0 -71 -2.5 -99t-14.5 -59q-14 -47 -110 -184q-98 -140 -109 -228h240v-106h-371z" />
<glyph unicode="&#xbe;" horiz-adv-x="1193" d="M47 815h117v-110q0 -12 0.5 -19t3.5 -20t9.5 -20t20.5 -13t33 -6q66 0 66 84v157q0 33 -7 53.5t-16 32t-33.5 16.5t-43.5 6t-62 1v113q41 0 57.5 1t37 7t32.5 20q14 17 16.5 43.5t2.5 143.5q0 18 -2 28t-15 19.5t-39 9.5q-31 0 -45 -14q-10 -10 -12 -27.5t-2 -103.5h-117 q0 39 0.5 57.5t3.5 49.5t9.5 45.5t19 34t31 28.5t46 15.5t64.5 6.5q50 0 85 -12t52 -26.5t26 -39t10 -38t1 -35.5v-115q0 -72 -22.5 -101.5t-67.5 -37.5q31 -9 51.5 -22t32 -25.5t16.5 -36t6 -41t1 -54.5v-141q0 -25 -0.5 -39.5t-4 -39t-10 -39t-20 -33t-32 -28.5t-48 -17 t-66.5 -7q-157 0 -182 113q-4 23 -4 176zM276 -10l633 1507l101 -41l-633 -1507zM745 203v102l197 594h168v-594h64v-102h-64v-203h-109v203h-256zM854 305h147v486z" />
<glyph unicode="&#xbf;" horiz-adv-x="681" d="M47 285q0 66 19 137t38 112t52 105q86 161 102 207t18 133h146q0 -92 -12.5 -148t-55.5 -147q-93 -202 -113 -259.5t-20 -133.5q0 -73 19 -111.5t77 -38.5q25 0 42 5.5t28.5 23t17.5 33t9 52t3.5 63.5t0.5 83h155q3 -91 0.5 -147.5t-16.5 -99.5q-14 -46 -41.5 -79 t-54 -48.5t-61 -24t-50.5 -9.5t-35 -1q-71 0 -124.5 25.5t-84 68.5t-45 93t-14.5 106zM264 1167v265h164v-265h-164z" />
<glyph unicode="&#xc0;" horiz-adv-x="681" d="M14 0l203 1446h232l223 -1446h-187l-36 266h-218l-32 -266h-185zM45 1833h209l149 -248h-102zM252 442h172l-72 502q-9 63 -12 230h-16q-7 -206 -11 -234z" />
<glyph unicode="&#xc1;" horiz-adv-x="681" d="M14 0l203 1446h232l223 -1446h-187l-36 266h-218l-32 -266h-185zM252 442h172l-72 502q-9 63 -12 230h-16q-7 -206 -11 -234zM264 1587l146 250h208l-258 -250h-96z" />
<glyph unicode="&#xc2;" horiz-adv-x="681" d="M14 0l203 1446h232l223 -1446h-187l-36 266h-218l-32 -266h-185zM100 1587l183 246h116l183 -246h-117l-123 146l-131 -146h-111zM252 442h172l-72 502q-9 63 -12 230h-16q-7 -206 -11 -234z" />
<glyph unicode="&#xc3;" horiz-adv-x="681" d="M14 0l203 1446h232l223 -1446h-187l-36 266h-218l-32 -266h-185zM90 1610q14 46 26 76t31 59.5t47.5 44t65.5 14.5q28 0 45 -5t98 -34q49 -16 60 -16q44 0 76 61h57q-45 -103 -78.5 -143.5t-81.5 -40.5q-32 0 -80 23q-67 30 -86 36.5t-39 6.5q-31 0 -56 -23.5t-34 -58.5 h-51zM252 442h172l-72 502q-9 63 -12 230h-16q-7 -206 -11 -234z" />
<glyph unicode="&#xc4;" horiz-adv-x="681" d="M14 0l203 1446h232l223 -1446h-187l-36 266h-218l-32 -266h-185zM133 1585v207h150v-207h-150zM252 442h172l-72 502q-9 63 -12 230h-16q-7 -206 -11 -234zM401 1585v207h150v-207h-150z" />
<glyph unicode="&#xc5;" horiz-adv-x="681" d="M14 0l203 1446h232l223 -1446h-187l-36 266h-218l-32 -266h-185zM186 1671q0 63 45.5 108.5t108.5 45.5t108.5 -45.5t45.5 -108.5q0 -64 -45.5 -109.5t-108.5 -45.5q-64 0 -109 45t-45 110zM240 1671q0 -46 28 -74q37 -28 72 -28q41 0 70.5 29.5t29.5 72.5q0 41 -29.5 71 t-70.5 30t-70.5 -30t-29.5 -71zM252 442h172l-72 502q-9 63 -12 230h-16q-7 -206 -11 -234z" />
<glyph unicode="&#xc6;" horiz-adv-x="980" d="M-20 0l301 1448h637v-180h-291v-441h252v-159h-252v-488h317v-180h-502v668h-147l-127 -668h-188zM326 825h116v353q0 70 7 149h-31z" />
<glyph unicode="&#xc7;" horiz-adv-x="768" d="M82 348v696q0 31 0.5 49t3.5 55t8 61.5t16.5 60.5t27 60t40.5 50.5t56.5 42.5t75.5 26.5t96 10.5q62 0 110.5 -15t79.5 -36.5t53 -56.5t32.5 -63t16.5 -69t6.5 -61.5t0.5 -52.5v-184h-191v223q0 21 -1 34.5t-7 37.5t-17.5 38.5t-35.5 26.5t-58 12q-35 0 -59 -12.5 t-36 -28.5t-18 -45t-7 -46.5t-1 -49.5v-799q0 -27 0.5 -41t3.5 -37.5t10.5 -36t20 -27t33.5 -20.5t49 -6q35 0 59 11.5t36 26.5t18 42t7 43.5t1 46.5v283h193v-270q0 -22 -1 -41t-6.5 -53t-15 -61.5t-29.5 -60.5t-47 -57t-69 -43.5t-95 -27.5l-32 -60q165 -8 165 -114 q0 -22 -7 -42t-30 -44t-60.5 -40.5t-105.5 -26.5t-157 -7v63q54 -3 93.5 2t58 13t29 20t11.5 18t1 13q0 19 -11.5 31.5t-32.5 17.5t-46 7.5t-55 4.5h-7l86 144q-54 7 -96 25.5t-69 40t-46 55t-28.5 59.5t-14.5 66t-5.5 61t-0.5 57z" />
<glyph unicode="&#xc8;" horiz-adv-x="598" d="M14 1833h209l150 -248h-103zM86 0v1446h477v-182h-282v-422h254v-178h-254v-482h284v-182h-479z" />
<glyph unicode="&#xc9;" horiz-adv-x="598" d="M86 0v1446h477v-182h-282v-422h254v-178h-254v-482h284v-182h-479zM242 1587l145 250h209l-258 -250h-96z" />
<glyph unicode="&#xca;" horiz-adv-x="598" d="M78 1587l182 246h117l182 -246h-117l-123 146l-131 -146h-110zM86 0v1446h477v-182h-282v-422h254v-178h-254v-482h284v-182h-479z" />
<glyph unicode="&#xcb;" horiz-adv-x="598" d="M86 0v1446h477v-182h-282v-422h254v-178h-254v-482h284v-182h-479zM100 1585v207h150v-207h-150zM369 1585v207h149v-207h-149z" />
<glyph unicode="&#xcc;" horiz-adv-x="342" d="M-115 1833h209l150 -248h-103zM76 0v1446h188v-1446h-188z" />
<glyph unicode="&#xcd;" horiz-adv-x="342" d="M76 0v1446h188v-1446h-188zM92 1587l146 250h208l-258 -250h-96z" />
<glyph unicode="&#xce;" horiz-adv-x="342" d="M-72 1587l183 246h116l183 -246h-117l-123 146l-131 -146h-111zM76 0v1446h188v-1446h-188z" />
<glyph unicode="&#xcf;" horiz-adv-x="342" d="M-39 1585v207h150v-207h-150zM76 0v1446h188v-1446h-188zM229 1585v207h150v-207h-150z" />
<glyph unicode="&#xd0;" horiz-adv-x="724" d="M0 723v139h80v584h350q59 0 101.5 -14t65 -34t35.5 -53.5t16 -62.5t3 -70v-962q0 -143 -44 -196.5t-161 -53.5h-366v723h-80zM270 178h127q38 0 50 19.5t12 60.5v911q0 26 -1.5 40t-8.5 30.5t-24 23.5t-44 7h-111v-408h107v-139h-107v-545z" />
<glyph unicode="&#xd1;" horiz-adv-x="768" d="M84 0v1446h205l215 -926q23 -106 31 -143h12q-18 153 -21 205l-8 135l-8 729h178v-1446h-211l-237 1083h-13l11 -125l8 -124l16 -834h-178zM143 1610q14 46 26 76t31 59.5t47.5 44t65.5 14.5q28 0 46 -5t98 -34q49 -16 59 -16q44 0 76 61h57q-45 -103 -78.5 -143.5 t-81.5 -40.5q-31 0 -79 23q-67 30 -86 36.5t-39 6.5q-31 0 -56 -23.5t-34 -58.5h-52z" />
<glyph unicode="&#xd2;" horiz-adv-x="768" d="M80 332v723q0 114 13.5 181.5t58.5 119.5q87 100 237 100q140 0 217 -82q55 -57 67.5 -130.5t12.5 -231.5v-686q0 -31 -1 -52.5t-7.5 -60.5t-17.5 -66t-34.5 -60t-56 -53t-83.5 -34t-115 -14q-186 0 -256 141q-16 31 -24.5 69.5t-9.5 63.5t-1 72zM98 1833h209l150 -248 h-103zM270 295q0 -26 1.5 -44t8 -40t17.5 -35.5t32.5 -23t51.5 -9.5q33 0 55.5 11.5t34.5 27.5t18.5 45.5t7.5 52t1 60.5v729q0 35 -0.5 52t-2.5 45.5t-6 42.5t-12 32.5t-19.5 27t-29.5 15t-41 6.5q-81 0 -106 -69q-11 -32 -11 -150v-776z" />
<glyph unicode="&#xd3;" horiz-adv-x="768" d="M80 332v723q0 114 13.5 181.5t58.5 119.5q87 100 237 100q140 0 217 -82q55 -57 67.5 -130.5t12.5 -231.5v-686q0 -31 -1 -52.5t-7.5 -60.5t-17.5 -66t-34.5 -60t-56 -53t-83.5 -34t-115 -14q-186 0 -256 141q-16 31 -24.5 69.5t-9.5 63.5t-1 72zM270 295q0 -26 1.5 -44 t8 -40t17.5 -35.5t32.5 -23t51.5 -9.5q33 0 55.5 11.5t34.5 27.5t18.5 45.5t7.5 52t1 60.5v729q0 35 -0.5 52t-2.5 45.5t-6 42.5t-12 32.5t-19.5 27t-29.5 15t-41 6.5q-81 0 -106 -69q-11 -32 -11 -150v-776zM305 1587l146 250h208l-258 -250h-96z" />
<glyph unicode="&#xd4;" horiz-adv-x="768" d="M80 332v723q0 114 13.5 181.5t58.5 119.5q87 100 237 100q140 0 217 -82q55 -57 67.5 -130.5t12.5 -231.5v-686q0 -31 -1 -52.5t-7.5 -60.5t-17.5 -66t-34.5 -60t-56 -53t-83.5 -34t-115 -14q-186 0 -256 141q-16 31 -24.5 69.5t-9.5 63.5t-1 72zM141 1587l183 246h116 l183 -246h-117l-123 146l-131 -146h-111zM270 295q0 -26 1.5 -44t8 -40t17.5 -35.5t32.5 -23t51.5 -9.5q33 0 55.5 11.5t34.5 27.5t18.5 45.5t7.5 52t1 60.5v729q0 35 -0.5 52t-2.5 45.5t-6 42.5t-12 32.5t-19.5 27t-29.5 15t-41 6.5q-81 0 -106 -69q-11 -32 -11 -150v-776z " />
<glyph unicode="&#xd5;" horiz-adv-x="768" d="M80 332v723q0 114 13.5 181.5t58.5 119.5q87 100 237 100q140 0 217 -82q55 -57 67.5 -130.5t12.5 -231.5v-686q0 -31 -1 -52.5t-7.5 -60.5t-17.5 -66t-34.5 -60t-56 -53t-83.5 -34t-115 -14q-186 0 -256 141q-16 31 -24.5 69.5t-9.5 63.5t-1 72zM143 1610q14 46 26 76 t31 59.5t47.5 44t65.5 14.5q28 0 46 -5t98 -34q49 -16 59 -16q44 0 76 61h57q-45 -103 -78.5 -143.5t-81.5 -40.5q-31 0 -79 23q-67 30 -86 36.5t-39 6.5q-31 0 -56 -23.5t-34 -58.5h-52zM270 295q0 -26 1.5 -44t8 -40t17.5 -35.5t32.5 -23t51.5 -9.5q33 0 55.5 11.5 t34.5 27.5t18.5 45.5t7.5 52t1 60.5v729q0 35 -0.5 52t-2.5 45.5t-6 42.5t-12 32.5t-19.5 27t-29.5 15t-41 6.5q-81 0 -106 -69q-11 -32 -11 -150v-776z" />
<glyph unicode="&#xd6;" horiz-adv-x="768" d="M80 332v723q0 114 13.5 181.5t58.5 119.5q87 100 237 100q140 0 217 -82q55 -57 67.5 -130.5t12.5 -231.5v-686q0 -31 -1 -52.5t-7.5 -60.5t-17.5 -66t-34.5 -60t-56 -53t-83.5 -34t-115 -14q-186 0 -256 141q-16 31 -24.5 69.5t-9.5 63.5t-1 72zM176 1587v207h150v-207 h-150zM270 295q0 -26 1.5 -44t8 -40t17.5 -35.5t32.5 -23t51.5 -9.5q33 0 55.5 11.5t34.5 27.5t18.5 45.5t7.5 52t1 60.5v729q0 35 -0.5 52t-2.5 45.5t-6 42.5t-12 32.5t-19.5 27t-29.5 15t-41 6.5q-81 0 -106 -69q-11 -32 -11 -150v-776zM444 1587v207h150v-207h-150z" />
<glyph unicode="&#xd7;" horiz-adv-x="1024" d="M88 289l311 311l-311 307l115 113l311 -307l307 307l115 -113l-307 -307l307 -311l-115 -115l-307 307l-311 -307z" />
<glyph unicode="&#xd8;" horiz-adv-x="768" d="M14 6l80 170q-18 55 -18 139v789q0 136 45 213q80 143 272 143q94 0 150 -27t100 -73l51 104l76 -34l-82 -170q10 -75 10 -136v-741q0 -128 -16.5 -201t-77.5 -129q-78 -69 -205 -69q-56 0 -101 10t-75.5 29t-46.5 32.5t-33 32.5l-57 -117zM260 338q2 -30 3 -42.5 t4.5 -38.5t8 -37.5t14 -29.5t21.5 -26t31 -14.5t43 -6.5q36 0 61 13t37 29.5t18.5 46.5t7.5 48.5t1 51.5v542zM262 535l248 532q0 80 -3 114t-15 58q-5 11 -13 22t-32.5 24t-57.5 13q-36 0 -61 -12.5t-37.5 -29t-19.5 -45t-8 -47t-1 -48.5v-581z" />
<glyph unicode="&#xd9;" horiz-adv-x="768" d="M82 315v1131h186v-1118q0 -38 1 -58t7 -50.5t17.5 -45.5t34.5 -27t57 -12q24 0 42.5 6.5t30.5 14.5t20.5 26t12.5 31t6 39t2.5 41.5t0.5 46.5v1106h188v-1096q0 -32 -0.5 -53t-6.5 -64t-17 -72.5t-34 -67t-54.5 -61t-82 -39.5t-114.5 -16q-297 0 -297 338zM98 1833h209 l150 -248h-103z" />
<glyph unicode="&#xda;" horiz-adv-x="768" d="M82 315v1131h186v-1118q0 -38 1 -58t7 -50.5t17.5 -45.5t34.5 -27t57 -12q24 0 42.5 6.5t30.5 14.5t20.5 26t12.5 31t6 39t2.5 41.5t0.5 46.5v1106h188v-1096q0 -32 -0.5 -53t-6.5 -64t-17 -72.5t-34 -67t-54.5 -61t-82 -39.5t-114.5 -16q-297 0 -297 338zM305 1587 l146 250h208l-258 -250h-96z" />
<glyph unicode="&#xdb;" horiz-adv-x="768" d="M82 315v1131h186v-1118q0 -38 1 -58t7 -50.5t17.5 -45.5t34.5 -27t57 -12q24 0 42.5 6.5t30.5 14.5t20.5 26t12.5 31t6 39t2.5 41.5t0.5 46.5v1106h188v-1096q0 -32 -0.5 -53t-6.5 -64t-17 -72.5t-34 -67t-54.5 -61t-82 -39.5t-114.5 -16q-297 0 -297 338zM141 1587 l183 246h116l183 -246h-117l-123 146l-131 -146h-111z" />
<glyph unicode="&#xdc;" horiz-adv-x="768" d="M82 315v1131h186v-1118q0 -38 1 -58t7 -50.5t17.5 -45.5t34.5 -27t57 -12q24 0 42.5 6.5t30.5 14.5t20.5 26t12.5 31t6 39t2.5 41.5t0.5 46.5v1106h188v-1096q0 -32 -0.5 -53t-6.5 -64t-17 -72.5t-34 -67t-54.5 -61t-82 -39.5t-114.5 -16q-297 0 -297 338zM174 1589v207 h150v-207h-150zM442 1589v207h150v-207h-150z" />
<glyph unicode="&#xdd;" horiz-adv-x="681" d="M6 1446h197l84 -336q24 -97 41 -279h14q14 169 49 295l90 320h193l-240 -840v-606h-207v604zM264 1587l146 250h208l-258 -250h-96z" />
<glyph unicode="&#xde;" horiz-adv-x="681" d="M84 0v1448h188v-242h183q67 0 108 -15.5t60 -51.5t24.5 -74.5t5.5 -106.5v-274q0 -68 -3 -107.5t-13.5 -75t-32 -52t-56 -26t-87.5 -9.5h-193v-414h-184zM272 586h121q36 0 52 13t16 52v305q0 41 -13.5 57.5t-58.5 16.5h-117v-444z" />
<glyph unicode="&#xdf;" d="M82 0v1210q0 248 240 248q122 0 178.5 -60t56.5 -161q0 -47 -0.5 -66.5t-1.5 -47.5t-4 -38.5t-7.5 -25.5t-13.5 -23t-19.5 -16.5t-27.5 -18.5q58 -21 75 -57.5t17 -118.5v-604q0 -22 -0.5 -35t-4.5 -40.5t-11 -45t-22.5 -40t-37.5 -36t-56 -23t-78 -9.5q-28 0 -78 8v145 q10 -2 30 -2q26 0 45 8.5t28.5 20t14.5 30.5t6 33t1 35v543q0 73 -24 100.5t-93 24.5v125q30 -3 50 3t30 15.5t15 32t6 38t1 48.5q0 63 -15 91t-65 28q-21 0 -36 -7t-22 -15t-10.5 -24.5t-4 -25t-0.5 -26.5v-1221h-162z" />
<glyph unicode="&#xe0;" d="M43 1417h209l147 -246h-98zM70 172v195q0 39 2 58.5t10.5 48.5t30 51.5t57.5 45.5l158 99q26 17 45.5 36t19.5 27v164q0 24 -3.5 39.5t-20 30t-47.5 14.5q-25 0 -41 -7.5t-22 -22.5t-7.5 -25t-1.5 -27v-154h-168v134q0 20 0.5 33t5 40.5t12.5 46t25.5 42.5t42 39 t63.5 25.5t88 10.5t88 -10t63.5 -23.5t42 -36.5t26 -41.5t13 -46t5 -41.5t0.5 -36v-695q0 -123 31 -186h-176q-19 45 -29 88q-20 -31 -35 -48.5t-48 -34.5t-75 -17q-44 0 -75.5 15t-46.5 33.5t-23 49t-9 46t-1 40.5zM233 250q0 -30 1.5 -46t7 -39.5t20 -34.5t37.5 -11 q26 0 45.5 15.5t28.5 35t14 47.5t5.5 41.5t0.5 28.5v258q-29 -25 -100 -72q-34 -24 -47 -50t-13 -63v-110z" />
<glyph unicode="&#xe1;" d="M70 172v195q0 39 2 58.5t10.5 48.5t30 51.5t57.5 45.5l158 99q26 17 45.5 36t19.5 27v164q0 24 -3.5 39.5t-20 30t-47.5 14.5q-25 0 -41 -7.5t-22 -22.5t-7.5 -25t-1.5 -27v-154h-168v134q0 20 0.5 33t5 40.5t12.5 46t25.5 42.5t42 39t63.5 25.5t88 10.5t88 -10 t63.5 -23.5t42 -36.5t26 -41.5t13 -46t5 -41.5t0.5 -36v-695q0 -123 31 -186h-176q-19 45 -29 88q-20 -31 -35 -48.5t-48 -34.5t-75 -17q-44 0 -75.5 15t-46.5 33.5t-23 49t-9 46t-1 40.5zM233 250q0 -30 1.5 -46t7 -39.5t20 -34.5t37.5 -11q26 0 45.5 15.5t28.5 35t14 47.5 t5.5 41.5t0.5 28.5v258q-29 -25 -100 -72q-34 -24 -47 -50t-13 -63v-110zM250 1169l147 248h203l-256 -248h-94z" />
<glyph unicode="&#xe2;" d="M70 172v195q0 39 2 58.5t10.5 48.5t30 51.5t57.5 45.5l158 99q26 17 45.5 36t19.5 27v164q0 24 -3.5 39.5t-20 30t-47.5 14.5q-25 0 -41 -7.5t-22 -22.5t-7.5 -25t-1.5 -27v-154h-168v134q0 20 0.5 33t5 40.5t12.5 46t25.5 42.5t42 39t63.5 25.5t88 10.5t88 -10 t63.5 -23.5t42 -36.5t26 -41.5t13 -46t5 -41.5t0.5 -36v-695q0 -123 31 -186h-176q-19 45 -29 88q-20 -31 -35 -48.5t-48 -34.5t-75 -17q-44 0 -75.5 15t-46.5 33.5t-23 49t-9 46t-1 40.5zM90 1171l186 246h115l182 -248h-116l-123 148l-131 -146h-113zM233 250 q0 -30 1.5 -46t7 -39.5t20 -34.5t37.5 -11q26 0 45.5 15.5t28.5 35t14 47.5t5.5 41.5t0.5 28.5v258q-29 -25 -100 -72q-34 -24 -47 -50t-13 -63v-110z" />
<glyph unicode="&#xe3;" d="M70 172v195q0 39 2 58.5t10.5 48.5t30 51.5t57.5 45.5l158 99q26 17 45.5 36t19.5 27v164q0 24 -3.5 39.5t-20 30t-47.5 14.5q-25 0 -41 -7.5t-22 -22.5t-7.5 -25t-1.5 -27v-154h-168v134q0 20 0.5 33t5 40.5t12.5 46t25.5 42.5t42 39t63.5 25.5t88 10.5t88 -10 t63.5 -23.5t42 -36.5t26 -41.5t13 -46t5 -41.5t0.5 -36v-695q0 -123 31 -186h-176q-19 45 -29 88q-20 -31 -35 -48.5t-48 -34.5t-75 -17q-44 0 -75.5 15t-46.5 33.5t-23 49t-9 46t-1 40.5zM82 1196q14 47 26 76.5t31 59.5t47.5 44.5t65.5 14.5q28 0 45 -5t98 -34 q52 -17 60 -17q42 0 75 62h58q-45 -103 -78.5 -144t-81.5 -41q-34 0 -78 23q-69 30 -88 36.5t-37 6.5q-32 0 -56.5 -23t-35.5 -59h-51zM233 250q0 -30 1.5 -46t7 -39.5t20 -34.5t37.5 -11q26 0 45.5 15.5t28.5 35t14 47.5t5.5 41.5t0.5 28.5v258q-29 -25 -100 -72 q-34 -24 -47 -50t-13 -63v-110z" />
<glyph unicode="&#xe4;" d="M70 172v195q0 39 2 58.5t10.5 48.5t30 51.5t57.5 45.5l158 99q26 17 45.5 36t19.5 27v164q0 24 -3.5 39.5t-20 30t-47.5 14.5q-25 0 -41 -7.5t-22 -22.5t-7.5 -25t-1.5 -27v-154h-168v134q0 20 0.5 33t5 40.5t12.5 46t25.5 42.5t42 39t63.5 25.5t88 10.5t88 -10 t63.5 -23.5t42 -36.5t26 -41.5t13 -46t5 -41.5t0.5 -36v-695q0 -123 31 -186h-176q-19 45 -29 88q-20 -31 -35 -48.5t-48 -34.5t-75 -17q-44 0 -75.5 15t-46.5 33.5t-23 49t-9 46t-1 40.5zM113 1217v206h149v-206h-149zM233 250q0 -30 1.5 -46t7 -39.5t20 -34.5t37.5 -11 q26 0 45.5 15.5t28.5 35t14 47.5t5.5 41.5t0.5 28.5v258q-29 -25 -100 -72q-34 -24 -47 -50t-13 -63v-110zM381 1217v206h149v-206h-149z" />
<glyph unicode="&#xe5;" d="M70 172v195q0 39 2 58.5t10.5 48.5t30 51.5t57.5 45.5l158 99q26 17 45.5 36t19.5 27v164q0 24 -3.5 39.5t-20 30t-47.5 14.5q-25 0 -41 -7.5t-22 -22.5t-7.5 -25t-1.5 -27v-154h-168v134q0 20 0.5 33t5 40.5t12.5 46t25.5 42.5t42 39t63.5 25.5t88 10.5t88 -10 t63.5 -23.5t42 -36.5t26 -41.5t13 -46t5 -41.5t0.5 -36v-695q0 -123 31 -186h-176q-19 45 -29 88q-20 -31 -35 -48.5t-48 -34.5t-75 -17q-44 0 -75.5 15t-46.5 33.5t-23 49t-9 46t-1 40.5zM164 1323q0 64 45 109t110 45t110.5 -45t45.5 -109t-45 -110t-111 -46 q-65 0 -110 45t-45 111zM219 1323q0 -43 29 -72q28 -28 71 -28t73 29.5t30 70.5t-30 70.5t-73 29.5q-41 0 -70.5 -29.5t-29.5 -70.5zM233 250q0 -30 1.5 -46t7 -39.5t20 -34.5t37.5 -11q26 0 45.5 15.5t28.5 35t14 47.5t5.5 41.5t0.5 28.5v258q-29 -25 -100 -72 q-34 -24 -47 -50t-13 -63v-110z" />
<glyph unicode="&#xe6;" horiz-adv-x="937" d="M59 172v215q0 78 24.5 114.5t96.5 84.5l172 112q20 13 24.5 24.5t4.5 39.5v127q0 17 -0.5 26t-4 23t-10.5 21.5t-21 13.5t-34 6q-22 0 -38 -6.5t-23.5 -14.5t-11.5 -22.5t-4.5 -23t-0.5 -23.5v-146h-163v123q0 20 0.5 33.5t5 42.5t13 49t26.5 45.5t42.5 41.5t64 27 t89.5 11q41 0 75.5 -9.5t46.5 -16t34 -21.5q24 15 37 22.5t48 16.5t75 8q90 0 149 -39q31 -21 50.5 -45.5t27 -56t9 -52t1.5 -57.5v-356h-319v-295q0 -18 0.5 -27.5t4.5 -25t11.5 -24t22.5 -15t37 -6.5q28 0 45.5 9t24 27t8 29t1.5 31v193h164v-164q0 -18 -0.5 -29.5t-3 -37 t-9 -44t-16.5 -43t-28 -41.5t-41.5 -33t-58.5 -24t-78 -8q-48 0 -86.5 9.5t-61 22t-40.5 31.5t-24.5 29.5t-13.5 25.5q-61 -118 -192 -118q-31 0 -56 7.5t-40.5 17.5t-27 28t-16.5 32t-8 37t-3.5 35t-0.5 33zM221 211q0 -18 1.5 -29t6.5 -28t20 -26t38 -9q94 0 94 141v283 q-38 -33 -105 -74q-32 -22 -43.5 -45.5t-11.5 -81.5v-131zM545 647h155v238q0 20 -1.5 32t-7.5 28.5t-21.5 25t-40.5 8.5q-24 0 -41 -7t-25 -16t-12.5 -24.5t-5 -24.5t-0.5 -24v-236z" />
<glyph unicode="&#xe7;" horiz-adv-x="598" d="M74 215v649q0 18 0.5 30.5t5 41t13 49.5t27 47.5t43.5 43t65 28.5t91 12t91 -11t65.5 -27.5t44 -42t27.5 -46.5t14 -51t5.5 -45.5t0.5 -38.5v-152h-166v187q0 42 -17 65t-65 23q-24 0 -40.5 -7.5t-25 -16t-12.5 -26.5t-4.5 -28t-0.5 -31v-665q0 -86 79 -86q30 0 49 10 t26.5 30.5t9 34.5t1.5 39v203h164v-198q0 -21 -0.5 -35t-4.5 -41t-11.5 -46t-23 -43t-37 -40.5t-55.5 -30t-77 -18.5l-30 -58q166 -8 166 -114q0 -22 -7 -42t-30.5 -44t-61.5 -40.5t-106 -26.5t-158 -7v63q55 -3 95 2t58.5 13t29 20t11.5 18t1 13q0 19 -12 31.5t-33 17.5 t-46.5 8t-54.5 4h-8l86 144q-47 7 -81.5 25t-53.5 40t-30 52.5t-14 56t-3 57.5z" />
<glyph unicode="&#xe8;" d="M43 1417h209l147 -246h-98zM80 209v588q0 137 20 184q24 64 85.5 98.5t140.5 34.5q50 0 89.5 -11.5t64 -28t42.5 -42.5t26.5 -46t13 -48t5 -40.5t0.5 -29.5v-356h-325v-307q0 -14 0.5 -22t4.5 -22.5t11.5 -23t23 -15.5t37.5 -7q82 0 82 100v193h166v-156 q0 -270 -250 -270q-55 0 -98 14q-39 13 -67.5 35.5t-42 44t-20.5 51.5t-8 45t-1 37zM242 649h159v230q0 19 -0.5 28.5t-4 25.5t-11 24.5t-22.5 15t-37 6.5q-24 0 -41 -8t-25 -18.5t-12.5 -29.5t-5 -30.5t-0.5 -32.5v-211z" />
<glyph unicode="&#xe9;" d="M80 209v588q0 137 20 184q24 64 85.5 98.5t140.5 34.5q50 0 89.5 -11.5t64 -28t42.5 -42.5t26.5 -46t13 -48t5 -40.5t0.5 -29.5v-356h-325v-307q0 -14 0.5 -22t4.5 -22.5t11.5 -23t23 -15.5t37.5 -7q82 0 82 100v193h166v-156q0 -270 -250 -270q-55 0 -98 14 q-39 13 -67.5 35.5t-42 44t-20.5 51.5t-8 45t-1 37zM242 649h159v230q0 19 -0.5 28.5t-4 25.5t-11 24.5t-22.5 15t-37 6.5q-24 0 -41 -8t-25 -18.5t-12.5 -29.5t-5 -30.5t-0.5 -32.5v-211zM250 1169l147 248h203l-256 -248h-94z" />
<glyph unicode="&#xea;" d="M80 209v588q0 137 20 184q24 64 85.5 98.5t140.5 34.5q50 0 89.5 -11.5t64 -28t42.5 -42.5t26.5 -46t13 -48t5 -40.5t0.5 -29.5v-356h-325v-307q0 -14 0.5 -22t4.5 -22.5t11.5 -23t23 -15.5t37.5 -7q82 0 82 100v193h166v-156q0 -270 -250 -270q-55 0 -98 14 q-39 13 -67.5 35.5t-42 44t-20.5 51.5t-8 45t-1 37zM90 1171l186 246h115l182 -248h-116l-123 148l-131 -146h-113zM242 649h159v230q0 19 -0.5 28.5t-4 25.5t-11 24.5t-22.5 15t-37 6.5q-24 0 -41 -8t-25 -18.5t-12.5 -29.5t-5 -30.5t-0.5 -32.5v-211z" />
<glyph unicode="&#xeb;" d="M80 209v588q0 137 20 184q24 64 85.5 98.5t140.5 34.5q50 0 89.5 -11.5t64 -28t42.5 -42.5t26.5 -46t13 -48t5 -40.5t0.5 -29.5v-356h-325v-307q0 -14 0.5 -22t4.5 -22.5t11.5 -23t23 -15.5t37.5 -7q82 0 82 100v193h166v-156q0 -270 -250 -270q-55 0 -98 14 q-39 13 -67.5 35.5t-42 44t-20.5 51.5t-8 45t-1 37zM131 1212v207h150v-207h-150zM242 649h159v230q0 19 -0.5 28.5t-4 25.5t-11 24.5t-22.5 15t-37 6.5q-24 0 -41 -8t-25 -18.5t-12.5 -29.5t-5 -30.5t-0.5 -32.5v-211zM399 1212v207h150v-207h-150z" />
<glyph unicode="&#xec;" horiz-adv-x="342" d="M-109 1417h209l148 -246h-98zM88 0v1096h164v-1096h-164z" />
<glyph unicode="&#xed;" horiz-adv-x="342" d="M88 0v1096h164v-1096h-164zM98 1169l148 248h203l-256 -248h-95z" />
<glyph unicode="&#xee;" horiz-adv-x="342" d="M-72 1171l187 246h114l183 -248h-117l-123 148l-131 -146h-113zM88 0v1096h164v-1096h-164z" />
<glyph unicode="&#xef;" horiz-adv-x="342" d="M-31 1212v207h150v-207h-150zM88 0v1096h164v-1096h-164zM238 1212v207h149v-207h-149z" />
<glyph unicode="&#xf0;" d="M78 250v45v506q0 97 13 149.5t48 91.5q31 35 75 55.5t89 20.5q73 0 109 -39q-9 50 -19 77.5t-35 72.5l-192 -76l-43 88l174 72q-45 52 -94 90l129 65q58 -50 74 -69q9 -10 16 -17.5t10 -11t6 -6.5l99 39l47 -92l-92 -37q42 -65 59 -164q18 -99 18 -250v-618q0 -33 -2 -57 t-15.5 -65.5t-38 -68.5t-74.5 -48t-120 -21q-39 0 -72 7t-56.5 17t-41.5 29t-30 34.5t-20 42.5t-12 44t-6.5 48t-2.5 46zM242 215q0 -18 0.5 -27.5t4.5 -25t12 -24t24 -15t39 -6.5q29 0 47.5 9.5t26.5 28t10 34t2 38.5v647q0 19 -1 31t-5 27.5t-12 24.5t-23.5 15.5 t-38.5 6.5q-30 0 -49 -10.5t-26.5 -32t-9 -36t-1.5 -40.5v-645z" />
<glyph unicode="&#xf1;" d="M72 1196q14 47 26 76.5t31 59.5t47.5 44.5t65.5 14.5q28 0 45 -5t98 -34q52 -17 59 -17q43 0 76 62h58q-45 -103 -78.5 -144t-81.5 -41q-34 0 -78 23q-69 30 -88 36.5t-37 6.5q-32 0 -56.5 -23t-35.5 -59h-51zM80 0v1096h162v-70q23 27 36 41t48.5 31.5t76.5 17.5 q47 0 80.5 -17.5t49.5 -39.5t25 -59t10 -57.5t1 -53.5v-889h-168v858q0 20 -0.5 30t-4 27.5t-10.5 26t-21 16t-35 7.5q-25 0 -42 -9.5t-25.5 -21.5t-13 -34t-5 -35t-0.5 -36v-829h-164z" />
<glyph unicode="&#xf2;" d="M43 1417h209l147 -246h-98zM78 250v45v506q0 25 0.5 39t2.5 42.5t6 47t13 45t21 44t31 37.5t43.5 31.5t58 19t74.5 7.5q39 0 72 -6.5t56 -16t42 -26t30.5 -31t19.5 -36.5t12 -37t6.5 -38t2.5 -34v-31v-616q0 -33 -2 -57t-15.5 -65.5t-38 -68.5t-74.5 -48t-120 -21 q-39 0 -72 7t-56.5 17t-41.5 29t-30 34.5t-20 42.5t-12 44t-6.5 48t-2.5 46zM242 215q0 -18 0.5 -27.5t4.5 -25t12 -24t24 -15t39 -6.5q29 0 47.5 9.5t26.5 28t10 34t2 38.5v647q0 19 -1 31t-5 27.5t-12 24.5t-23.5 15.5t-38.5 6.5q-30 0 -49 -10.5t-26.5 -32t-9 -36 t-1.5 -40.5v-645z" />
<glyph unicode="&#xf3;" d="M78 250v45v506q0 25 0.5 39t2.5 42.5t6 47t13 45t21 44t31 37.5t43.5 31.5t58 19t74.5 7.5q39 0 72 -6.5t56 -16t42 -26t30.5 -31t19.5 -36.5t12 -37t6.5 -38t2.5 -34v-31v-616q0 -33 -2 -57t-15.5 -65.5t-38 -68.5t-74.5 -48t-120 -21q-39 0 -72 7t-56.5 17t-41.5 29 t-30 34.5t-20 42.5t-12 44t-6.5 48t-2.5 46zM242 215q0 -18 0.5 -27.5t4.5 -25t12 -24t24 -15t39 -6.5q29 0 47.5 9.5t26.5 28t10 34t2 38.5v647q0 19 -1 31t-5 27.5t-12 24.5t-23.5 15.5t-38.5 6.5q-30 0 -49 -10.5t-26.5 -32t-9 -36t-1.5 -40.5v-645zM250 1169l147 248 h203l-256 -248h-94z" />
<glyph unicode="&#xf4;" d="M78 250v45v506q0 25 0.5 39t2.5 42.5t6 47t13 45t21 44t31 37.5t43.5 31.5t58 19t74.5 7.5q39 0 72 -6.5t56 -16t42 -26t30.5 -31t19.5 -36.5t12 -37t6.5 -38t2.5 -34v-31v-616q0 -33 -2 -57t-15.5 -65.5t-38 -68.5t-74.5 -48t-120 -21q-39 0 -72 7t-56.5 17t-41.5 29 t-30 34.5t-20 42.5t-12 44t-6.5 48t-2.5 46zM90 1171l186 246h115l182 -248h-116l-123 148l-131 -146h-113zM242 215q0 -18 0.5 -27.5t4.5 -25t12 -24t24 -15t39 -6.5q29 0 47.5 9.5t26.5 28t10 34t2 38.5v647q0 19 -1 31t-5 27.5t-12 24.5t-23.5 15.5t-38.5 6.5 q-30 0 -49 -10.5t-26.5 -32t-9 -36t-1.5 -40.5v-645z" />
<glyph unicode="&#xf5;" d="M78 250v45v506q0 25 0.5 39t2.5 42.5t6 47t13 45t21 44t31 37.5t43.5 31.5t58 19t74.5 7.5q39 0 72 -6.5t56 -16t42 -26t30.5 -31t19.5 -36.5t12 -37t6.5 -38t2.5 -34v-31v-616q0 -33 -2 -57t-15.5 -65.5t-38 -68.5t-74.5 -48t-120 -21q-39 0 -72 7t-56.5 17t-41.5 29 t-30 34.5t-20 42.5t-12 44t-6.5 48t-2.5 46zM82 1196q14 47 26 76.5t31 59.5t47.5 44.5t65.5 14.5q28 0 45 -5t98 -34q52 -17 60 -17q42 0 75 62h58q-45 -103 -78.5 -144t-81.5 -41q-34 0 -78 23q-69 30 -88 36.5t-37 6.5q-32 0 -56.5 -23t-35.5 -59h-51zM242 215 q0 -18 0.5 -27.5t4.5 -25t12 -24t24 -15t39 -6.5q29 0 47.5 9.5t26.5 28t10 34t2 38.5v647q0 19 -1 31t-5 27.5t-12 24.5t-23.5 15.5t-38.5 6.5q-30 0 -49 -10.5t-26.5 -32t-9 -36t-1.5 -40.5v-645z" />
<glyph unicode="&#xf6;" d="M78 250v45v506q0 25 0.5 39t2.5 42.5t6 47t13 45t21 44t31 37.5t43.5 31.5t58 19t74.5 7.5q39 0 72 -6.5t56 -16t42 -26t30.5 -31t19.5 -36.5t12 -37t6.5 -38t2.5 -34v-31v-616q0 -33 -2 -57t-15.5 -65.5t-38 -68.5t-74.5 -48t-120 -21q-39 0 -72 7t-56.5 17t-41.5 29 t-30 34.5t-20 42.5t-12 44t-6.5 48t-2.5 46zM113 1217v206h149v-206h-149zM242 215q0 -18 0.5 -27.5t4.5 -25t12 -24t24 -15t39 -6.5q29 0 47.5 9.5t26.5 28t10 34t2 38.5v647q0 19 -1 31t-5 27.5t-12 24.5t-23.5 15.5t-38.5 6.5q-30 0 -49 -10.5t-26.5 -32t-9 -36 t-1.5 -40.5v-645zM381 1217v206h149v-206h-149z" />
<glyph unicode="&#xf7;" horiz-adv-x="1024" d="M0 514v162h1024v-162h-1024zM399 299q0 48 35 81.5t82 33.5q46 0 80.5 -32.5t34.5 -84.5q0 -47 -34 -80t-83 -33q-50 0 -82.5 33t-32.5 82zM399 887q0 50 32.5 84.5t84.5 34.5q51 0 83 -34.5t32 -82.5q0 -41 -30 -77t-85 -36q-49 0 -83 32.5t-34 78.5z" />
<glyph unicode="&#xf8;" d="M39 6l55 121q-16 53 -16 102v619q0 130 61 194q65 72 195 72q49 0 89 -13.5t55.5 -24.5t39.5 -32l39 76l57 -30l-55 -125q8 -54 8 -88v-652q0 -69 -20.5 -119t-57 -76.5t-77.5 -38t-90 -11.5q-51 0 -91.5 13.5t-57.5 25.5t-40 34l-37 -76zM240 201q0 -82 79 -82 q25 0 42 8.5t25.5 19.5t13.5 30t5.5 30.5t0.5 30.5v401l-166 -352v-86zM240 442l168 351q0 96 -2.5 119t-14.5 38q-19 27 -63 27q-31 0 -50.5 -11.5t-27 -34t-9 -37.5t-1.5 -40v-412z" />
<glyph unicode="&#xf9;" d="M43 1417h209l147 -246h-98zM76 207v889h168v-858q0 -20 0.5 -30t4 -27.5t10.5 -26t21 -16t35 -7.5q30 0 49 12t26.5 36.5t9 41t1.5 45.5v830h164v-1096h-162v70q-21 -26 -35.5 -41.5t-49.5 -32t-76 -16.5q-47 0 -80.5 17.5t-49.5 39.5t-25 59t-10 57.5t-1 53.5z" />
<glyph unicode="&#xfa;" d="M76 207v889h168v-858q0 -20 0.5 -30t4 -27.5t10.5 -26t21 -16t35 -7.5q30 0 49 12t26.5 36.5t9 41t1.5 45.5v830h164v-1096h-162v70q-21 -26 -35.5 -41.5t-49.5 -32t-76 -16.5q-47 0 -80.5 17.5t-49.5 39.5t-25 59t-10 57.5t-1 53.5zM250 1169l147 248h203l-256 -248h-94 z" />
<glyph unicode="&#xfb;" d="M76 207v889h168v-858q0 -20 0.5 -30t4 -27.5t10.5 -26t21 -16t35 -7.5q30 0 49 12t26.5 36.5t9 41t1.5 45.5v830h164v-1096h-162v70q-21 -26 -35.5 -41.5t-49.5 -32t-76 -16.5q-47 0 -80.5 17.5t-49.5 39.5t-25 59t-10 57.5t-1 53.5zM80 1171l186 246h115l182 -248h-117 l-122 148l-131 -146h-113z" />
<glyph unicode="&#xfc;" d="M76 207v889h168v-858q0 -20 0.5 -30t4 -27.5t10.5 -26t21 -16t35 -7.5q30 0 49 12t26.5 36.5t9 41t1.5 45.5v830h164v-1096h-162v70q-21 -26 -35.5 -41.5t-49.5 -32t-76 -16.5q-47 0 -80.5 17.5t-49.5 39.5t-25 59t-10 57.5t-1 53.5zM115 1217v206h149v-206h-149z M383 1217v206h149v-206h-149z" />
<glyph unicode="&#xfd;" horiz-adv-x="555" d="M8 1096h168l72 -652q2 -19 10 -109t10 -110h17q3 142 8 208.5t22 199.5l58 461h170l-209 -1221q-14 -91 -65 -128.5t-136 -37.5q-27 0 -88 4v160q16 0 34 -0.5t35.5 5t31.5 15t22.5 31t7.5 51.5q0 18 -4 50zM207 1169l147 248h203l-256 -248h-94z" />
<glyph unicode="&#xfe;" d="M78 -297v1745h168v-428q20 44 61 69t92 25q164 0 164 -205v-698q0 -19 -1 -33t-5 -44.5t-15 -52.5t-28.5 -45.5t-48 -36.5t-70.5 -13q-26 0 -49 7.5t-36.5 15t-30.5 25t-20.5 22t-16.5 22.5v-375h-164zM242 236q0 -18 1.5 -30t8 -31t24.5 -29.5t46 -10.5q77 0 77 105v620 q0 55 -15.5 82t-57.5 27q-24 0 -41 -9.5t-25 -21.5t-12.5 -33.5t-5 -34t-0.5 -34.5v-600z" />
<glyph unicode="&#xff;" horiz-adv-x="555" d="M8 1096h168l72 -652q2 -19 10 -109t10 -110h17q3 142 8 208.5t22 199.5l58 461h170l-209 -1221q-14 -91 -65 -128.5t-136 -37.5q-27 0 -88 4v160q16 0 34 -0.5t35.5 5t31.5 15t22.5 31t7.5 51.5q0 18 -4 50zM78 1212v207h149v-207h-149zM346 1212v207h150v-207h-150z" />
<glyph unicode="&#x152;" horiz-adv-x="980" d="M80 371v663q0 66 1 100.5t6.5 87.5t16.5 80t33 61.5t53.5 50.5t79.5 28t111 12q10 0 59.5 -3t53.5 -3h446v-180h-295v-428h252v-176h-252v-490h307v-174h-483l-23 -2q-22 -2 -47 -4t-32 -2q-160 0 -234 106q-25 36 -37 83t-14 82.5t-2 107.5zM258 358q0 -37 0.5 -54.5 t3 -44.5t9 -40t17 -27.5t28.5 -20t42 -5.5q28 0 47 10.5t28.5 23.5t14.5 37.5t6 40.5t1 44v811q0 29 -1 45t-5.5 38t-14 33.5t-27.5 20t-45 8.5q-30 0 -51 -11t-31 -24t-15.5 -35t-6 -33.5t-0.5 -29.5v-787z" />
<glyph unicode="&#x153;" horiz-adv-x="980" d="M76 215v647q0 42 3 69.5t21.5 68.5t53.5 69q66 51 172 51q99 0 168 -51q1 1 9 6t10.5 6.5t11.5 6.5t14 7t14.5 6t17 6t19 5t22 4.5t23.5 2.5t27 1q110 0 174 -55q25 -21 41 -45.5t22 -53t7 -45t1 -44.5v-365h-334v-295q0 -98 84 -98q24 0 41 8.5t25 18.5t12.5 28.5 t5 28.5t0.5 28v175h166v-166q0 -17 -0.5 -29.5t-5 -41.5t-13 -51t-26.5 -49.5t-43 -45.5t-65 -30.5t-90 -12.5q-108 0 -172 57q-71 -57 -173 -57q-98 0 -157 38q-86 57 -86 197zM238 217q0 -15 0.5 -24t5 -25.5t12.5 -26.5t25 -18t41 -8q25 0 43 8.5t26.5 19.5t13 28.5t5 27 t0.5 24.5v649q0 19 -1 30.5t-5.5 28.5t-13.5 26.5t-26 16.5t-42 7q-28 0 -46 -10t-25.5 -29t-10 -35.5t-2.5 -40.5v-649zM575 647h168v232q0 21 -2 35.5t-9.5 31.5t-26 26t-46.5 9q-24 0 -41 -8.5t-25 -18.5t-12.5 -30.5t-5 -33t-0.5 -36.5v-207z" />
<glyph unicode="&#x178;" horiz-adv-x="681" d="M6 1446h197l84 -336q24 -97 41 -279h14q14 169 49 295l90 320h193l-240 -840v-606h-207v604zM133 1585v207h150v-207h-150zM401 1585v207h150v-207h-150z" />
<glyph unicode="&#x2c6;" horiz-adv-x="425" d="M-29 1171l187 246h114l183 -248h-117l-123 148l-131 -146h-113z" />
<glyph unicode="&#x2dc;" horiz-adv-x="425" d="M-39 1196q14 47 26 76.5t31 59.5t47.5 44.5t65.5 14.5q28 0 45 -5t98 -34q52 -17 60 -17q43 0 76 62h57q-45 -103 -78.5 -144t-81.5 -41q-34 0 -78 23q-69 30 -88 36.5t-37 6.5q-32 0 -56.5 -23t-35.5 -59h-51z" />
<glyph unicode="&#x2000;" horiz-adv-x="918" />
<glyph unicode="&#x2001;" horiz-adv-x="1837" />
<glyph unicode="&#x2002;" horiz-adv-x="918" />
<glyph unicode="&#x2003;" horiz-adv-x="1837" />
<glyph unicode="&#x2004;" horiz-adv-x="612" />
<glyph unicode="&#x2005;" horiz-adv-x="459" />
<glyph unicode="&#x2006;" horiz-adv-x="306" />
<glyph unicode="&#x2007;" horiz-adv-x="306" />
<glyph unicode="&#x2008;" horiz-adv-x="229" />
<glyph unicode="&#x2009;" horiz-adv-x="367" />
<glyph unicode="&#x200a;" horiz-adv-x="102" />
<glyph unicode="&#x2010;" horiz-adv-x="468" d="M59 582v172h363v-172h-363z" />
<glyph unicode="&#x2011;" horiz-adv-x="468" d="M59 582v172h363v-172h-363z" />
<glyph unicode="&#x2012;" horiz-adv-x="468" d="M59 582v172h363v-172h-363z" />
<glyph unicode="&#x2013;" horiz-adv-x="724" d="M61 582v172h607v-172h-607z" />
<glyph unicode="&#x2014;" horiz-adv-x="1024" d="M59 582v172h908v-172h-908z" />
<glyph unicode="&#x2018;" horiz-adv-x="299" d="M68 901v219q0 143 30 204.5t125 117.5v-45q-44 -32 -58.5 -77t-14.5 -155h81v-264h-163z" />
<glyph unicode="&#x2019;" horiz-adv-x="299" d="M66 1182v264h163v-219q0 -143 -30 -204.5t-125 -117.5v45q44 32 58.5 77t14.5 155h-81z" />
<glyph unicode="&#x201a;" horiz-adv-x="299" d="M63 0v264h164v-219q0 -99 -13.5 -154t-44.5 -91t-97 -76v45q45 32 59 76.5t14 154.5h-82z" />
<glyph unicode="&#x201c;" horiz-adv-x="598" d="M96 905v219q0 143 30.5 204.5t125.5 117.5v-45q-45 -33 -59.5 -78t-14.5 -154h82v-264h-164zM365 905v219q0 143 30 204.5t125 117.5v-45q-45 -33 -59.5 -78t-14.5 -154h82v-264h-163z" />
<glyph unicode="&#x201d;" horiz-adv-x="598" d="M84 1178v268h164v-223q0 -141 -30.5 -202.5t-125.5 -117.5v43q45 34 59.5 79t14.5 153h-82zM356 1178v268h164v-223q0 -143 -30 -204.5t-125 -117.5v45q44 32 58.5 77t14.5 155h-82z" />
<glyph unicode="&#x201e;" horiz-adv-x="598" d="M78 0v264h164v-219q0 -142 -30 -202.5t-126 -118.5v45q45 33 59.5 77.5t14.5 153.5h-82zM346 0v264h164v-219q0 -142 -30 -202.5t-126 -118.5v45q45 33 59.5 77.5t14.5 153.5h-82z" />
<glyph unicode="&#x2022;" horiz-adv-x="681" d="M76 723q0 109 77.5 187.5t190.5 78.5t188.5 -75t75.5 -191q0 -121 -76 -193.5t-184 -72.5q-118 0 -195 77.5t-77 188.5z" />
<glyph unicode="&#x2026;" horiz-adv-x="2048" d="M254 0v270h168v-270h-168zM936 0v270h168v-270h-168zM1618 0v270h168v-270h-168z" />
<glyph unicode="&#x202f;" horiz-adv-x="367" />
<glyph unicode="&#x2039;" horiz-adv-x="382" d="M57 559v215l269 244v-205l-160 -147l162 -146v-205z" />
<glyph unicode="&#x203a;" horiz-adv-x="382" d="M57 811v201l273 -238v-219l-271 -240v205l162 146z" />
<glyph unicode="&#x205f;" horiz-adv-x="459" />
<glyph unicode="&#x2122;" horiz-adv-x="1406" d="M33 1346v100h553v-100h-215v-580h-119v580h-219zM643 766v680h162l170 -537l166 537h162v-680h-117l4 420l6 139l-172 -559h-106l-173 557l9 -137l4 -420h-115z" />
<glyph unicode="&#xe000;" horiz-adv-x="1095" d="M0 0v1096h1096v-1096h-1096z" />
<glyph unicode="&#xfb01;" horiz-adv-x="724" d="M18 958v136h93v192q0 41 4.5 66t18.5 49.5t44.5 35.5t79.5 11q46 0 111 -6v-142q-21 1 -38 0t-28.5 -6t-17.5 -19t-6 -38v-143h94v-136h-97v-958h-167v958h-91zM471 0v1096h164v-1096h-164zM475 1223v219h162v-219h-162z" />
<glyph unicode="&#xfb02;" horiz-adv-x="724" d="M18 958v136h93v192q0 41 4.5 66t18.5 49.5t44.5 35.5t79.5 11q46 0 111 -6v-142q-21 1 -38 0t-28.5 -6t-17.5 -19t-6 -38v-143h96v-136h-99v-958h-167v958h-91zM471 0v1448h166v-1448h-166z" />
</font>
</defs>
</svg>
